<svg width="593" height="154" viewBox="0 0 593 154" fill="none" xmlns="http://www.w3.org/2000/svg">
<g clip-path="url(#clip0)">
<path d="M136.835 0H17.0188C7.61142 0 0 7.7 0 17.1111L0.0855216 136.889C0.0855216 146.3 7.69695 154 17.1043 154H102.626L153.939 102.667V17.1111C153.939 7.7 146.242 0 136.835 0ZM34.2087 42.7777H119.73V59.8889H34.2087V42.7777ZM76.9695 94.1111H34.2087V77H76.9695V94.1111ZM94.0739 141.167V94.1111H141.111L94.0739 141.167Z" fill="#DDBCBC"/>
<path d="M114.252 90.6339V114.297H137.594L206.741 44.2007L183.398 20.5378L114.252 90.6339ZM225.168 25.6656C227.611 23.1895 227.611 19.1897 225.168 16.7136L210.513 1.85707C208.07 -0.619022 204.125 -0.619022 201.682 1.85707L190.445 13.3942L213.787 37.0572L225.168 25.6656Z" fill="#F90000"/>
<path d="M153.939 50.3809L114.252 90.6338V94.1139H141.107L120.931 114.297H137.594L153.939 97.7359V50.3809Z" fill="#5B0B0B"/>
</g>
<path d="M331.263 57H322.435V90.5739H322.004L298.942 57H291V106.254H299.875V72.7047H300.282L323.368 106.254H331.263V57ZM355.955 106.976C366.721 106.976 373.563 99.3522 373.563 87.9283C373.563 76.4805 366.721 68.8327 355.955 68.8327C345.19 68.8327 338.348 76.4805 338.348 87.9283C338.348 99.3522 345.19 106.976 355.955 106.976ZM356.003 100.001C350.047 100.001 347.128 94.6624 347.128 87.9042C347.128 81.1462 350.047 75.735 356.003 75.735C361.865 75.735 364.783 81.1462 364.783 87.9042C364.783 94.6624 361.865 100.001 356.003 100.001ZM398.639 69.3135H391.389V60.4632H382.729V69.3135H377.515V76.0476H382.729V96.5864C382.682 103.537 387.707 106.952 394.213 106.76C396.678 106.687 398.375 106.206 399.309 105.894L397.849 99.0875C397.37 99.2079 396.39 99.4242 395.313 99.4242C393.137 99.4242 391.389 98.6546 391.389 95.1434V76.0476H398.639V69.3135ZM421.13 106.976C429.695 106.976 435.581 102.767 437.111 96.3459L429.025 95.432C427.854 98.5585 424.981 100.194 421.25 100.194C415.653 100.194 411.944 96.4902 411.873 90.1649H437.471V87.4954C437.471 74.5325 429.72 68.8327 420.676 68.8327C410.149 68.8327 403.283 76.6007 403.283 88.0005C403.283 99.5926 410.054 106.976 421.13 106.976ZM411.897 84.2967C412.159 79.5829 415.629 75.6148 420.795 75.6148C425.771 75.6148 429.121 79.2702 429.169 84.2967H411.897ZM444.555 106.254H453.072V100.434H453.575C454.938 103.128 457.786 106.904 464.101 106.904C472.762 106.904 479.244 100.001 479.244 87.8322C479.244 75.5184 472.569 68.8327 464.077 68.8327C457.593 68.8327 454.891 72.7528 453.575 75.4223H453.216V57H444.555V106.254ZM453.048 87.784C453.048 80.6172 456.111 75.9754 461.684 75.9754C467.449 75.9754 470.417 80.9058 470.417 87.784C470.417 94.7104 467.402 99.761 461.684 99.761C456.158 99.761 453.048 94.951 453.048 87.784ZM496.558 107C502.323 107 505.766 104.282 507.346 101.18H507.634V106.254H515.958V81.5311C515.958 71.7667 508.04 68.8327 501.03 68.8327C493.303 68.8327 487.369 72.2959 485.457 79.0298L493.543 80.1841C494.404 77.6589 496.844 75.4944 501.079 75.4944C505.096 75.4944 507.299 77.5628 507.299 81.1944V81.3386C507.299 83.8398 504.69 83.96 498.208 84.6575C491.078 85.4272 484.261 87.5676 484.261 95.889C484.261 103.152 489.548 107 496.558 107ZM498.805 100.603C495.193 100.603 492.609 98.9432 492.609 95.7447C492.609 92.4017 495.504 91.0068 499.38 90.4537C501.653 90.141 506.199 89.5636 507.321 88.6497V93.003C507.321 97.1154 504.02 100.603 498.805 100.603ZM553.085 79.078C551.889 72.8249 546.913 68.8327 538.301 68.8327C529.45 68.8327 523.421 73.2098 523.445 80.0398C523.421 85.4272 526.721 88.9865 533.78 90.4537L540.047 91.7764C543.421 92.5219 544.999 93.8928 544.999 95.9851C544.999 98.5103 542.272 100.41 538.157 100.41C534.186 100.41 531.602 98.6787 530.861 95.3598L522.416 96.1776C523.492 102.96 529.162 106.976 538.181 106.976C547.368 106.976 553.85 102.19 553.874 95.1914C553.85 89.9245 550.478 86.7017 543.541 85.1866L537.272 83.8398C533.541 82.9981 532.057 81.6993 532.081 79.559C532.057 77.0577 534.807 75.3262 538.421 75.3262C542.416 75.3262 544.522 77.5146 545.191 79.9437L553.085 79.078ZM576.66 106.976C585.225 106.976 591.11 102.767 592.641 96.3459L584.555 95.432C583.383 98.5585 580.511 100.194 576.779 100.194C571.182 100.194 567.473 96.4902 567.402 90.1649H593V87.4954C593 74.5325 585.249 68.8327 576.205 68.8327C565.679 68.8327 558.813 76.6007 558.813 88.0005C558.813 99.5926 565.583 106.976 576.66 106.976ZM567.427 84.2967C567.688 79.5829 571.158 75.6148 576.325 75.6148C581.3 75.6148 584.65 79.2702 584.699 84.2967H567.427Z" fill="#DDBCBC"/>
<defs>
<clipPath id="clip0">
<rect width="227" height="154" fill="white"/>
</clipPath>
</defs>
</svg>
