<svg width="220" height="76" viewBox="0 0 220 76" fill="none" xmlns="http://www.w3.org/2000/svg">
<path d="M78.5954 40.8182H73.8781V58.6648H73.648L61.3241 40.8182H57.0798V67H61.8227V49.1662H62.04L74.3767 67H78.5954V40.8182ZM91.7908 67.3835C97.5437 67.3835 101.2 63.331 101.2 57.2585C101.2 51.1733 97.5437 47.108 91.7908 47.108C86.038 47.108 82.3817 51.1733 82.3817 57.2585C82.3817 63.331 86.038 67.3835 91.7908 67.3835ZM91.8164 63.6761C88.6332 63.6761 87.0735 60.8381 87.0735 57.2457C87.0735 53.6534 88.6332 50.777 91.8164 50.777C94.9485 50.777 96.5082 53.6534 96.5082 57.2457C96.5082 60.8381 94.9485 63.6761 91.8164 63.6761ZM114.6 47.3636H110.726V42.6591H106.098V47.3636H103.312V50.9432H106.098V61.8608C106.073 65.5554 108.758 67.3707 112.235 67.2685C113.552 67.2301 114.459 66.9744 114.958 66.8082L114.178 63.1903C113.922 63.2543 113.398 63.3693 112.823 63.3693C111.66 63.3693 110.726 62.9602 110.726 61.0938V50.9432H114.6V47.3636ZM126.619 67.3835C131.196 67.3835 134.341 65.1463 135.159 61.733L130.838 61.2472C130.212 62.9091 128.677 63.7784 126.683 63.7784C123.692 63.7784 121.71 61.8097 121.672 58.4474H135.351V57.0284C135.351 50.1378 131.209 47.108 126.376 47.108C120.751 47.108 117.082 51.2372 117.082 57.2969C117.082 63.4588 120.7 67.3835 126.619 67.3835ZM121.685 55.3281C121.825 52.8224 123.679 50.7131 126.44 50.7131C129.099 50.7131 130.889 52.6562 130.915 55.3281H121.685ZM139.137 67H143.688V63.9062H143.957C144.685 65.3381 146.207 67.3452 149.582 67.3452C154.21 67.3452 157.674 63.6761 157.674 57.2074C157.674 50.6619 154.107 47.108 149.569 47.108C146.104 47.108 144.66 49.1918 143.957 50.6108H143.765V40.8182H139.137V67ZM143.675 57.1818C143.675 53.3722 145.312 50.9048 148.29 50.9048C151.371 50.9048 152.957 53.5256 152.957 57.1818C152.957 60.8636 151.346 63.5483 148.29 63.5483C145.337 63.5483 143.675 60.9915 143.675 57.1818ZM166.926 67.3963C170.007 67.3963 171.847 65.9517 172.691 64.3026H172.845V67H177.293V53.858C177.293 48.6676 173.062 47.108 169.316 47.108C165.187 47.108 162.016 48.9489 160.994 52.5284L165.315 53.142C165.775 51.7997 167.079 50.6491 169.342 50.6491C171.489 50.6491 172.666 51.7486 172.666 53.679V53.7557C172.666 55.0852 171.272 55.1491 167.808 55.5199C163.998 55.929 160.355 57.0668 160.355 61.4901C160.355 65.3509 163.18 67.3963 166.926 67.3963ZM168.127 63.9957C166.197 63.9957 164.816 63.1136 164.816 61.4134C164.816 59.6364 166.363 58.8949 168.434 58.6009C169.649 58.4347 172.078 58.1278 172.678 57.642V59.956C172.678 62.142 170.914 63.9957 168.127 63.9957ZM197.133 52.554C196.494 49.2301 193.835 47.108 189.233 47.108C184.503 47.108 181.281 49.4347 181.294 53.0653C181.281 55.929 183.045 57.821 186.817 58.6009L190.166 59.304C191.969 59.7003 192.812 60.429 192.812 61.5412C192.812 62.8835 191.355 63.8935 189.156 63.8935C187.034 63.8935 185.653 62.973 185.257 61.2088L180.744 61.6435C181.319 65.2486 184.349 67.3835 189.169 67.3835C194.078 67.3835 197.542 64.8395 197.555 61.1193C197.542 58.3196 195.74 56.6065 192.033 55.8011L188.683 55.0852C186.689 54.6378 185.896 53.9474 185.909 52.8097C185.896 51.4801 187.366 50.5597 189.297 50.5597C191.432 50.5597 192.557 51.723 192.915 53.0142L197.133 52.554ZM209.731 67.3835C214.308 67.3835 217.453 65.1463 218.271 61.733L213.95 61.2472C213.324 62.9091 211.789 63.7784 209.795 63.7784C206.804 63.7784 204.822 61.8097 204.784 58.4474H218.463V57.0284C218.463 50.1378 214.321 47.108 209.488 47.108C203.863 47.108 200.194 51.2372 200.194 57.2969C200.194 63.4588 203.812 67.3835 209.731 67.3835ZM204.797 55.3281C204.937 52.8224 206.791 50.7131 209.552 50.7131C212.211 50.7131 214.001 52.6562 214.027 55.3281H204.797Z" fill="#DDBCBC"/>
<path d="M48.2237 0H5.99782C2.68244 0 0 2.57695 0 5.72656L0.0301398 45.8125C0.0301398 48.9621 2.71258 51.5391 6.02796 51.5391H36.1678L54.2517 34.3594V5.72656C54.2517 2.57695 51.5391 0 48.2237 0ZM12.0559 14.3164H42.1957V20.043H12.0559V14.3164ZM27.1258 31.4961H12.0559V25.7695H27.1258V31.4961ZM33.1538 47.2442V31.4961H49.7307L33.1538 47.2442Z" fill="#DDBCBC"/>
<path d="M40.2649 30.3323L40.265 38.2516H48.4914L72.8601 14.7926L64.6337 6.87327L40.2649 30.3323ZM79.3544 8.5894C80.2153 7.76073 80.2153 6.42211 79.3544 5.59344L74.1896 0.621411C73.3288 -0.207259 71.9383 -0.207259 71.0774 0.621411L67.1172 4.48254L75.3436 12.4018L79.3544 8.5894Z" fill="#F90000"/>
<path d="M54.2516 16.8609L40.2649 30.3323V31.497H49.7293L42.6187 38.2516H48.4913L54.2516 32.7091V16.8609Z" fill="#5B0B0B"/>
</svg>
