<svg width="35" height="10" viewBox="0 0 35 10" fill="none" xmlns="http://www.w3.org/2000/svg">
<path d="M7.77783 4.51976C7.77783 2.02355 6.0367 -3.04339e-05 3.88892 -3.04637e-05C1.74113 -3.04934e-05 7.1987e-08 2.02355 4.63749e-08 4.51976C2.07627e-08 7.01597 1.74113 9.03955 3.88892 9.03955C6.0367 9.03955 7.77783 7.01597 7.77783 4.51976Z" fill="white"/>
<path d="M21.3889 4.51976C21.3889 2.02355 19.6478 -3.04339e-05 17.5 -3.04637e-05C15.3522 -3.04934e-05 13.6111 2.02355 13.6111 4.51976C13.6111 7.01597 15.3522 9.03955 17.5 9.03955C19.6478 9.03955 21.3889 7.01597 21.3889 4.51976Z" fill="white"/>
<path d="M35.0001 4.51976C35.0001 2.02355 33.259 -3.04339e-05 31.1112 -3.04637e-05C28.9634 -3.04934e-05 27.2223 2.02355 27.2223 4.51976C27.2223 7.01597 28.9634 9.03955 31.1112 9.03955C33.259 9.03955 35.0001 7.01597 35.0001 4.51976Z" fill="white"/>
</svg>
