<?xml version="1.0" encoding="utf-8"?>
<!-- Generator: Adobe Illustrator 22.0.1, SVG Export Plug-In . SVG Version: 6.00 Build 0)  -->
<svg version="1.1" id="Layer_1" xmlns="http://www.w3.org/2000/svg" xmlns:xlink="http://www.w3.org/1999/xlink" x="0px" y="0px"
	 viewBox="0 0 255 42" style="enable-background:new 0 0 255 42;" xml:space="preserve">
<style type="text/css">
	.st0{fill:#3B5998;}
	.st1{fill:#FFFFFF;}
</style>
<path class="st0" d="M251,41H3.8c-1.6,0-2.9-1.3-2.9-2.9V3.8c0-1.6,1.3-2.9,2.9-2.9H251c1.6,0,2.9,1.3,2.9,2.9V38
	C253.9,39.7,252.6,41,251,41z"/>
<g>
	<path id="White_2_" class="st1" d="M33.3,8h-24C8.5,8,7.8,8.7,7.8,9.5v24c0,0.8,0.7,1.5,1.5,1.5h12.9V24.5h-3.5v-4.1h3.5v-3
		c0-3.5,2.1-5.4,5.2-5.4c1.5,0,2.8,0.1,3.1,0.2v3.6h-2.2c-1.7,0-2,0.8-2,2v2.6h4l-0.5,4.1h-3.5V35h6.9c0.8,0,1.5-0.7,1.5-1.5v-24
		C34.8,8.7,34.1,8,33.3,8z"/>
</g>
<g>
	<path class="st1" d="M55.6,16.4c0.9-0.9,2-1.3,3.3-1.3c1.8,0,3.1,0.6,3.9,1.8c0.5,0.7,0.7,1.3,0.7,2h-2.3c-0.1-0.5-0.3-0.9-0.6-1.2
		c-0.4-0.5-1-0.7-1.8-0.7s-1.4,0.3-1.9,1s-0.7,1.6-0.7,2.8s0.2,2.1,0.7,2.7s1.1,0.9,1.9,0.9c0.8,0,1.4-0.3,1.8-0.8
		c0.2-0.3,0.4-0.7,0.6-1.3h2.2c-0.2,1.2-0.7,2.1-1.5,2.9c-0.8,0.7-1.8,1.1-3.1,1.1c-1.5,0-2.7-0.5-3.6-1.5c-0.9-1-1.3-2.4-1.3-4.1
		C54.1,18.8,54.6,17.4,55.6,16.4z"/>
	<path class="st1" d="M72.2,25c-0.7,0.8-1.7,1.2-3.1,1.2S66.7,25.8,66,25s-1-1.8-1-3s0.3-2.1,1-3c0.7-0.8,1.7-1.3,3.1-1.3
		s2.4,0.4,3.1,1.3c0.7,0.8,1,1.8,1,3S72.9,24.2,72.2,25z M70.6,23.9c0.3-0.4,0.5-1.1,0.5-1.9s-0.2-1.4-0.5-1.8s-0.8-0.6-1.4-0.6
		s-1.1,0.2-1.4,0.6s-0.5,1-0.5,1.8s0.2,1.4,0.5,1.9c0.3,0.4,0.8,0.7,1.4,0.7S70.2,24.3,70.6,23.9z"/>
	<path class="st1" d="M81.5,18.5c0.5,0.4,0.8,1.1,0.8,2.1V26h-2.1v-4.9c0-0.4-0.1-0.7-0.2-1c-0.2-0.4-0.6-0.6-1.2-0.6
		c-0.7,0-1.2,0.3-1.4,0.9c-0.1,0.3-0.2,0.7-0.2,1.2V26h-2.1v-8h2v1.2c0.3-0.4,0.5-0.7,0.8-0.9c0.4-0.3,1-0.5,1.6-0.5
		C80.3,17.9,81,18.1,81.5,18.5z"/>
	<path class="st1" d="M83.7,19.6v-1.5h1.1v-2.2h2.1v2.2h1.3v1.5h-1.3v4.2c0,0.3,0,0.5,0.1,0.6s0.3,0.1,0.8,0.1c0.1,0,0.1,0,0.2,0
		s0.1,0,0.2,0v1.6h-1c-1,0-1.7-0.1-2-0.5c-0.2-0.2-0.4-0.6-0.4-1.1v-4.9H83.7z"/>
	<path class="st1" d="M91.9,17.1h-2.1v-1.9h2.1V17.1z M89.8,18h2.1v8h-2.1V18z"/>
	<path class="st1" d="M100.7,18.5c0.5,0.4,0.8,1.1,0.8,2.1V26h-2.1v-4.9c0-0.4-0.1-0.7-0.2-1c-0.2-0.4-0.6-0.6-1.2-0.6
		c-0.7,0-1.2,0.3-1.4,0.9c-0.1,0.3-0.2,0.7-0.2,1.2V26h-2.1v-8h2v1.2c0.3-0.4,0.5-0.7,0.8-0.9c0.4-0.3,1-0.5,1.6-0.5
		C99.5,17.9,100.2,18.1,100.7,18.5z"/>
	<path class="st1" d="M105.8,18v4.8c0,0.5,0.1,0.8,0.2,1c0.2,0.4,0.6,0.6,1.1,0.6c0.7,0,1.2-0.3,1.5-0.9c0.1-0.3,0.2-0.7,0.2-1.2V18
		h2.1v8h-2v-1.1c0,0-0.1,0.1-0.1,0.2c-0.1,0.1-0.2,0.2-0.3,0.3c-0.3,0.3-0.6,0.5-0.9,0.6s-0.7,0.2-1.1,0.2c-1.2,0-2-0.4-2.4-1.3
		c-0.2-0.5-0.3-1.2-0.3-2.1V18H105.8z"/>
	<path class="st1" d="M118.4,18.2c0.6,0.2,1,0.6,1.4,1.2c0.3,0.5,0.5,1,0.6,1.7c0.1,0.4,0.1,0.9,0.1,1.6h-5.8c0,0.8,0.3,1.4,0.8,1.7
		c0.3,0.2,0.7,0.3,1.2,0.3s0.9-0.1,1.2-0.4c0.2-0.1,0.3-0.3,0.4-0.5h2.1c-0.1,0.5-0.3,1-0.8,1.4c-0.7,0.8-1.7,1.2-3,1.2
		c-1.1,0-2-0.3-2.8-1s-1.2-1.7-1.2-3.2c0-1.4,0.4-2.4,1.1-3.2c0.7-0.7,1.7-1.1,2.9-1.1C117.2,17.8,117.8,18,118.4,18.2z M115.3,20
		c-0.3,0.3-0.5,0.7-0.6,1.2h3.6c0-0.6-0.2-1-0.6-1.3c-0.3-0.3-0.7-0.4-1.2-0.4C116,19.6,115.6,19.7,115.3,20z"/>
	<path class="st1" d="M130.1,18h2.1l1.2,5.8l1.2-5.8h2.2l-2.3,8h-2.1l-1.3-5.8l-1.3,5.8h-2.2l-2.2-8h2.2l1.2,5.7L130.1,18z"/>
	<path class="st1" d="M140.4,17.1h-2.1v-1.9h2.1V17.1z M138.3,18h2.1v8h-2.1V18z"/>
	<path class="st1" d="M141.9,19.6v-1.5h1.1v-2.2h2.1v2.2h1.3v1.5h-1.3v4.2c0,0.3,0,0.5,0.1,0.6s0.3,0.1,0.8,0.1c0.1,0,0.1,0,0.2,0
		c0.1,0,0.1,0,0.2,0v1.6h-1c-1,0-1.7-0.1-2-0.5c-0.2-0.2-0.4-0.6-0.4-1.1v-4.9H141.9z"/>
	<path class="st1" d="M153.8,18.1c0.4,0.2,0.7,0.4,1,0.8c0.2,0.3,0.4,0.6,0.4,0.9s0.1,0.8,0.1,1.5V26h-2.1v-4.9c0-0.4-0.1-0.8-0.2-1
		c-0.2-0.4-0.5-0.6-1.1-0.6c-0.5,0-1,0.2-1.2,0.6c-0.3,0.4-0.4,0.9-0.4,1.6V26H148V15.3h2.1v3.8c0.3-0.5,0.7-0.8,1-1
		c0.4-0.2,0.8-0.3,1.2-0.3C152.9,17.8,153.4,17.9,153.8,18.1z"/>
	<path class="st1" d="M162.1,15.2h7.7v1.9h-5.5v2.5h4.8v1.9h-4.8V26h-2.2V15.2z"/>
	<path class="st1" d="M174.6,21.2c0.4,0,0.7-0.1,0.8-0.2c0.3-0.1,0.5-0.3,0.5-0.6c0-0.3-0.1-0.6-0.3-0.7s-0.6-0.2-1-0.2
		c-0.5,0-0.9,0.1-1.1,0.4c-0.1,0.2-0.2,0.4-0.3,0.7h-2c0-0.7,0.2-1.3,0.6-1.7c0.6-0.7,1.5-1.1,2.9-1.1c0.9,0,1.7,0.2,2.3,0.5
		c0.7,0.3,1,1,1,2V24c0,0.3,0,0.6,0,0.9s0.1,0.5,0.1,0.6s0.2,0.2,0.3,0.2V26h-2.3c-0.1-0.2-0.1-0.3-0.1-0.5s0-0.3-0.1-0.5
		c-0.3,0.3-0.6,0.6-1,0.8c-0.5,0.3-1,0.4-1.5,0.4c-0.7,0-1.3-0.2-1.8-0.6s-0.7-1-0.7-1.8c0-1,0.4-1.7,1.1-2.1c0.4-0.2,1-0.4,1.8-0.5
		L174.6,21.2z M175.9,22.1c-0.1,0.1-0.3,0.2-0.4,0.2c-0.1,0.1-0.3,0.1-0.6,0.1l-0.5,0.1c-0.4,0.1-0.8,0.2-1,0.3
		c-0.3,0.2-0.5,0.5-0.5,0.9s0.1,0.6,0.3,0.8c0.2,0.2,0.4,0.2,0.7,0.2c0.5,0,0.9-0.1,1.3-0.4c0.4-0.3,0.6-0.7,0.6-1.4L175.9,22.1
		L175.9,22.1z"/>
	<path class="st1" d="M184.8,20.9c0-0.3-0.1-0.6-0.3-0.8c-0.2-0.3-0.6-0.5-1.1-0.5c-0.7,0-1.2,0.3-1.4,1c-0.1,0.4-0.2,0.9-0.2,1.5
		s0.1,1.1,0.2,1.4c0.2,0.7,0.7,1,1.4,1c0.5,0,0.8-0.1,1-0.4s0.3-0.6,0.4-1h2.1c0,0.6-0.3,1.2-0.7,1.8c-0.7,0.9-1.6,1.4-2.9,1.4
		c-1.3,0-2.2-0.4-2.8-1.1c-0.6-0.8-0.9-1.8-0.9-3c0-1.4,0.3-2.4,1-3.2s1.6-1.1,2.8-1.1c1,0,1.8,0.2,2.5,0.7c0.6,0.4,1,1.2,1.1,2.4
		L184.8,20.9L184.8,20.9z"/>
	<path class="st1" d="M193.9,18.2c0.6,0.2,1,0.6,1.4,1.2c0.3,0.5,0.5,1,0.6,1.7c0.1,0.4,0.1,0.9,0.1,1.6h-5.8c0,0.8,0.3,1.4,0.8,1.7
		c0.3,0.2,0.7,0.3,1.2,0.3s0.9-0.1,1.2-0.4c0.2-0.1,0.3-0.3,0.4-0.5h2.1c-0.1,0.5-0.3,1-0.8,1.4c-0.7,0.8-1.7,1.2-3,1.2
		c-1.1,0-2-0.3-2.8-1s-1.2-1.7-1.2-3.2c0-1.4,0.4-2.4,1.1-3.2c0.7-0.7,1.7-1.1,2.9-1.1C192.7,17.8,193.4,18,193.9,18.2z M190.8,20
		c-0.3,0.3-0.5,0.7-0.6,1.2h3.6c0-0.6-0.2-1-0.6-1.3c-0.3-0.3-0.7-0.4-1.2-0.4C191.5,19.6,191.1,19.7,190.8,20z"/>
	<path class="st1" d="M204.2,19c0.6,0.8,0.9,1.7,0.9,2.9c0,1.2-0.3,2.3-0.9,3.1s-1.4,1.2-2.5,1.2c-0.7,0-1.2-0.1-1.6-0.4
		c-0.2-0.2-0.5-0.4-0.8-0.8v1h-2.1V15.2h2.1V19c0.3-0.4,0.6-0.7,0.9-0.8c0.4-0.2,0.9-0.4,1.4-0.4C202.7,17.9,203.6,18.2,204.2,19z
		 M202.4,23.9c0.3-0.4,0.5-1,0.5-1.7c0-0.6-0.1-1-0.2-1.4c-0.3-0.7-0.8-1.1-1.6-1.1s-1.3,0.3-1.6,1c-0.1,0.4-0.2,0.8-0.2,1.4
		c0,0.7,0.2,1.2,0.5,1.7c0.3,0.4,0.8,0.7,1.4,0.7C201.7,24.5,202.1,24.3,202.4,23.9z"/>
	<path class="st1" d="M213.5,25c-0.7,0.8-1.7,1.2-3.1,1.2s-2.4-0.4-3.1-1.2s-1-1.8-1-3s0.3-2.1,1-3c0.7-0.8,1.7-1.3,3.1-1.3
		s2.4,0.4,3.1,1.3c0.7,0.8,1,1.8,1,3S214.1,24.2,213.5,25z M211.8,23.9c0.3-0.4,0.5-1.1,0.5-1.9s-0.2-1.4-0.5-1.8s-0.8-0.6-1.4-0.6
		s-1.1,0.2-1.4,0.6c-0.3,0.4-0.5,1-0.5,1.8s0.2,1.4,0.5,1.9c0.3,0.4,0.8,0.7,1.4,0.7S211.5,24.3,211.8,23.9z"/>
	<path class="st1" d="M222.9,25c-0.7,0.8-1.7,1.2-3.1,1.2s-2.4-0.4-3.1-1.2s-1-1.8-1-3s0.3-2.1,1-3c0.7-0.8,1.7-1.3,3.1-1.3
		s2.4,0.4,3.1,1.3c0.7,0.8,1,1.8,1,3S223.6,24.2,222.9,25z M221.3,23.9c0.3-0.4,0.5-1.1,0.5-1.9s-0.2-1.4-0.5-1.8s-0.8-0.6-1.4-0.6
		s-1.1,0.2-1.4,0.6c-0.3,0.4-0.5,1-0.5,1.8s0.2,1.4,0.5,1.9c0.3,0.4,0.8,0.7,1.4,0.7S220.9,24.3,221.3,23.9z"/>
	<path class="st1" d="M225.7,15.3h2.1v5.8l2.6-3h2.6l-2.9,3l3,5h-2.5l-1.9-3.4l-0.9,0.9V26h-2.1L225.7,15.3L225.7,15.3z"/>
</g>
</svg>
