<svg width="258" height="48" viewBox="0 0 258 48" fill="none" xmlns="http://www.w3.org/2000/svg">
<g clip-path="url(#clip0)">
<g filter="url(#filter0_dd)">
<path fill-rule="evenodd" clip-rule="evenodd" d="M6 4C4.89543 4 4 4.89543 4 6V42C4 43.1046 4.89543 44 6 44H252C253.105 44 254 43.1046 254 42V6C254 4.89543 253.105 4 252 4H6Z" fill="#3B5998"/>
</g>
</g>
<path d="M76.2139 26.4365C76.2139 25.999 76.0589 25.6618 75.749 25.4248C75.4437 25.1878 74.89 24.9486 74.0879 24.707C73.2858 24.4655 72.6478 24.1966 72.1738 23.9004C71.2669 23.3307 70.8135 22.5879 70.8135 21.6719C70.8135 20.8698 71.1393 20.209 71.791 19.6895C72.4473 19.1699 73.2972 18.9102 74.3408 18.9102C75.0335 18.9102 75.651 19.0378 76.1934 19.293C76.7357 19.5482 77.1618 19.9128 77.4717 20.3867C77.7816 20.8561 77.9365 21.3779 77.9365 21.9521H76.2139C76.2139 21.4326 76.0498 21.027 75.7217 20.7354C75.3981 20.4391 74.9333 20.291 74.3271 20.291C73.762 20.291 73.3223 20.4118 73.0078 20.6533C72.6979 20.8949 72.543 21.2321 72.543 21.665C72.543 22.0296 72.7116 22.335 73.0488 22.5811C73.3861 22.8226 73.9421 23.0596 74.7168 23.292C75.4915 23.5199 76.1136 23.7819 76.583 24.0781C77.0524 24.3698 77.3965 24.707 77.6152 25.0898C77.834 25.4681 77.9434 25.9124 77.9434 26.4229C77.9434 27.2523 77.6243 27.9131 76.9863 28.4053C76.3529 28.8929 75.4915 29.1367 74.4023 29.1367C73.6823 29.1367 73.0192 29.0046 72.4131 28.7402C71.8115 28.4714 71.3421 28.1022 71.0049 27.6328C70.6722 27.1634 70.5059 26.6165 70.5059 25.9922H72.2354C72.2354 26.5573 72.4222 26.9948 72.7959 27.3047C73.1696 27.6146 73.7051 27.7695 74.4023 27.7695C75.0039 27.7695 75.4551 27.6488 75.7559 27.4072C76.0612 27.1611 76.2139 26.8376 76.2139 26.4365ZM81.2861 29H79.625V21.6035H81.2861V29ZM79.5225 19.6826C79.5225 19.4274 79.6022 19.2155 79.7617 19.0469C79.9258 18.8783 80.1582 18.7939 80.459 18.7939C80.7598 18.7939 80.9922 18.8783 81.1562 19.0469C81.3203 19.2155 81.4023 19.4274 81.4023 19.6826C81.4023 19.9333 81.3203 20.1429 81.1562 20.3115C80.9922 20.4756 80.7598 20.5576 80.459 20.5576C80.1582 20.5576 79.9258 20.4756 79.7617 20.3115C79.6022 20.1429 79.5225 19.9333 79.5225 19.6826ZM83.0293 25.2471C83.0293 24.0986 83.2982 23.1826 83.8359 22.499C84.3783 21.8109 85.096 21.4668 85.9893 21.4668C86.8324 21.4668 87.4954 21.7607 87.9785 22.3486L88.0537 21.6035H89.5508V28.7744C89.5508 29.7451 89.2477 30.5107 88.6416 31.0713C88.04 31.6318 87.2266 31.9121 86.2012 31.9121C85.6589 31.9121 85.1279 31.7982 84.6084 31.5703C84.0934 31.347 83.7015 31.0531 83.4326 30.6885L84.2188 29.6904C84.7292 30.2965 85.3581 30.5996 86.1055 30.5996C86.6569 30.5996 87.0921 30.4492 87.4111 30.1484C87.7301 29.8522 87.8896 29.4147 87.8896 28.8359V28.3369C87.4111 28.8701 86.7731 29.1367 85.9756 29.1367C85.1097 29.1367 84.401 28.7926 83.8496 28.1045C83.3027 27.4163 83.0293 26.4639 83.0293 25.2471ZM84.6836 25.3906C84.6836 26.1335 84.834 26.7191 85.1348 27.1475C85.4401 27.5713 85.8617 27.7832 86.3994 27.7832C87.0693 27.7832 87.5661 27.4961 87.8896 26.9219V23.668C87.5752 23.1074 87.083 22.8271 86.4131 22.8271C85.8662 22.8271 85.4401 23.0436 85.1348 23.4766C84.834 23.9095 84.6836 24.5475 84.6836 25.3906ZM93.0234 21.6035L93.0713 22.458C93.6182 21.7972 94.3359 21.4668 95.2246 21.4668C96.765 21.4668 97.5488 22.3486 97.5762 24.1123V29H95.915V24.208C95.915 23.7386 95.8125 23.3923 95.6074 23.1689C95.4069 22.9411 95.0765 22.8271 94.6162 22.8271C93.9463 22.8271 93.4473 23.1302 93.1191 23.7363V29H91.458V21.6035H93.0234ZM107.68 28.2754C107.192 28.8496 106.499 29.1367 105.602 29.1367C104.799 29.1367 104.191 28.902 103.776 28.4326C103.366 27.9632 103.161 27.2842 103.161 26.3955V21.6035H104.822V26.375C104.822 27.3138 105.212 27.7832 105.991 27.7832C106.798 27.7832 107.342 27.4938 107.625 26.915V21.6035H109.286V29H107.721L107.68 28.2754ZM117.674 25.377C117.674 26.5208 117.414 27.4346 116.895 28.1182C116.375 28.7972 115.678 29.1367 114.803 29.1367C113.992 29.1367 113.342 28.8701 112.854 28.3369V31.8438H111.193V21.6035H112.725L112.793 22.3555C113.281 21.763 113.944 21.4668 114.782 21.4668C115.685 21.4668 116.391 21.804 116.901 22.4785C117.416 23.1484 117.674 24.0804 117.674 25.2744V25.377ZM116.02 25.2334C116.02 24.4951 115.871 23.9095 115.575 23.4766C115.284 23.0436 114.864 22.8271 114.317 22.8271C113.638 22.8271 113.151 23.1074 112.854 23.668V26.9492C113.155 27.5234 113.647 27.8105 114.331 27.8105C114.86 27.8105 115.272 27.5986 115.568 27.1748C115.869 26.7464 116.02 26.0993 116.02 25.2334ZM129.507 26.71L130.683 21.6035H132.303L130.286 29H128.919L127.333 23.9209L125.774 29H124.407L122.384 21.6035H124.004L125.2 26.6553L126.718 21.6035H127.969L129.507 26.71ZM135.399 29H133.738V21.6035H135.399V29ZM133.636 19.6826C133.636 19.4274 133.715 19.2155 133.875 19.0469C134.039 18.8783 134.271 18.7939 134.572 18.7939C134.873 18.7939 135.105 18.8783 135.27 19.0469C135.434 19.2155 135.516 19.4274 135.516 19.6826C135.516 19.9333 135.434 20.1429 135.27 20.3115C135.105 20.4756 134.873 20.5576 134.572 20.5576C134.271 20.5576 134.039 20.4756 133.875 20.3115C133.715 20.1429 133.636 19.9333 133.636 19.6826ZM139.515 19.8057V21.6035H140.82V22.834H139.515V26.9629C139.515 27.2454 139.569 27.4505 139.679 27.5781C139.793 27.7012 139.993 27.7627 140.28 27.7627C140.472 27.7627 140.665 27.7399 140.861 27.6943V28.9795C140.483 29.0843 140.118 29.1367 139.768 29.1367C138.492 29.1367 137.854 28.4326 137.854 27.0244V22.834H136.637V21.6035H137.854V19.8057H139.515ZM143.951 22.4102C144.493 21.7812 145.179 21.4668 146.009 21.4668C147.586 21.4668 148.385 22.3669 148.408 24.167V29H146.747V24.2285C146.747 23.7181 146.635 23.3581 146.412 23.1484C146.193 22.9342 145.87 22.8271 145.441 22.8271C144.776 22.8271 144.279 23.1234 143.951 23.7158V29H142.29V18.5H143.951V22.4102ZM159.913 24.7822H155.907V29H154.178V19.0469H160.501V20.4414H155.907V23.4014H159.913V24.7822ZM166.12 29C166.047 28.8587 165.983 28.6286 165.929 28.3096C165.4 28.861 164.753 29.1367 163.987 29.1367C163.244 29.1367 162.638 28.9248 162.169 28.501C161.7 28.0771 161.465 27.5531 161.465 26.9287C161.465 26.1403 161.757 25.5365 162.34 25.1172C162.928 24.6934 163.766 24.4814 164.855 24.4814H165.874V23.9961C165.874 23.6133 165.767 23.3079 165.553 23.0801C165.339 22.8477 165.013 22.7314 164.575 22.7314C164.197 22.7314 163.887 22.8271 163.646 23.0186C163.404 23.2054 163.283 23.4447 163.283 23.7363H161.622C161.622 23.3307 161.757 22.9525 162.025 22.6016C162.294 22.2461 162.659 21.9681 163.119 21.7676C163.584 21.5671 164.101 21.4668 164.671 21.4668C165.537 21.4668 166.227 21.6855 166.742 22.123C167.257 22.556 167.521 23.1667 167.535 23.9551V27.291C167.535 27.9564 167.629 28.4873 167.815 28.8838V29H166.12ZM164.295 27.8037C164.623 27.8037 164.931 27.724 165.218 27.5645C165.509 27.4049 165.728 27.1908 165.874 26.9219V25.5273H164.979C164.363 25.5273 163.901 25.6344 163.591 25.8486C163.281 26.0628 163.126 26.3659 163.126 26.7578C163.126 27.0768 163.231 27.332 163.44 27.5234C163.655 27.7103 163.939 27.8037 164.295 27.8037ZM172.532 27.8105C172.947 27.8105 173.291 27.6898 173.564 27.4482C173.838 27.2067 173.984 26.9082 174.002 26.5527H175.567C175.549 27.013 175.406 27.4437 175.137 27.8447C174.868 28.2412 174.503 28.5557 174.043 28.7881C173.583 29.0205 173.086 29.1367 172.553 29.1367C171.518 29.1367 170.698 28.8018 170.092 28.1318C169.486 27.4619 169.183 26.5368 169.183 25.3564V25.1855C169.183 24.0599 169.483 23.1598 170.085 22.4854C170.687 21.8063 171.507 21.4668 172.546 21.4668C173.425 21.4668 174.141 21.7243 174.692 22.2393C175.248 22.7497 175.54 23.4219 175.567 24.2559H174.002C173.984 23.832 173.838 23.4834 173.564 23.21C173.296 22.9365 172.951 22.7998 172.532 22.7998C171.994 22.7998 171.58 22.9958 171.288 23.3877C170.996 23.7751 170.848 24.3652 170.844 25.1582V25.4248C170.844 26.2269 170.987 26.8262 171.274 27.2227C171.566 27.6146 171.985 27.8105 172.532 27.8105ZM180.298 29.1367C179.245 29.1367 178.391 28.8063 177.734 28.1455C177.083 27.4801 176.757 26.596 176.757 25.4932V25.2881C176.757 24.5498 176.898 23.8913 177.181 23.3125C177.468 22.7292 177.869 22.2757 178.384 21.9521C178.899 21.6286 179.473 21.4668 180.106 21.4668C181.114 21.4668 181.891 21.7881 182.438 22.4307C182.989 23.0732 183.265 23.9824 183.265 25.1582V25.8281H178.432C178.482 26.4388 178.685 26.9219 179.04 27.2773C179.4 27.6328 179.851 27.8105 180.394 27.8105C181.155 27.8105 181.774 27.5029 182.253 26.8877L183.148 27.7422C182.852 28.1842 182.456 28.5283 181.959 28.7744C181.467 29.016 180.913 29.1367 180.298 29.1367ZM180.1 22.7998C179.644 22.7998 179.275 22.9593 178.992 23.2783C178.714 23.5973 178.536 24.0417 178.459 24.6113H181.624V24.4883C181.588 23.9323 181.439 23.513 181.18 23.2305C180.92 22.9434 180.56 22.7998 180.1 22.7998ZM191.27 25.377C191.27 26.5254 191.012 27.4391 190.497 28.1182C189.987 28.7972 189.283 29.1367 188.385 29.1367C187.519 29.1367 186.844 28.8245 186.361 28.2002L186.279 29H184.775V18.5H186.437V22.3145C186.915 21.7493 187.56 21.4668 188.371 21.4668C189.273 21.4668 189.982 21.8018 190.497 22.4717C191.012 23.1416 191.27 24.0781 191.27 25.2812V25.377ZM189.608 25.2334C189.608 24.4313 189.467 23.8298 189.185 23.4287C188.902 23.0277 188.492 22.8271 187.954 22.8271C187.234 22.8271 186.728 23.1416 186.437 23.7705V26.8193C186.733 27.4619 187.243 27.7832 187.968 27.7832C188.487 27.7832 188.888 27.5895 189.171 27.2021C189.453 26.8148 189.599 26.2292 189.608 25.4453V25.2334ZM192.575 25.2334C192.575 24.5088 192.719 23.8571 193.006 23.2783C193.293 22.695 193.696 22.2484 194.216 21.9385C194.735 21.624 195.332 21.4668 196.007 21.4668C197.005 21.4668 197.814 21.7881 198.434 22.4307C199.058 23.0732 199.395 23.9255 199.445 24.9873L199.452 25.377C199.452 26.1061 199.311 26.7578 199.028 27.332C198.75 27.9062 198.349 28.3506 197.825 28.665C197.306 28.9795 196.704 29.1367 196.021 29.1367C194.977 29.1367 194.141 28.7904 193.512 28.0977C192.887 27.4004 192.575 26.473 192.575 25.3154V25.2334ZM194.236 25.377C194.236 26.138 194.394 26.735 194.708 27.168C195.022 27.5964 195.46 27.8105 196.021 27.8105C196.581 27.8105 197.016 27.5918 197.326 27.1543C197.641 26.7168 197.798 26.0765 197.798 25.2334C197.798 24.486 197.636 23.8936 197.312 23.4561C196.993 23.0186 196.558 22.7998 196.007 22.7998C195.465 22.7998 195.034 23.0163 194.715 23.4492C194.396 23.8776 194.236 24.5202 194.236 25.377ZM200.765 25.2334C200.765 24.5088 200.908 23.8571 201.195 23.2783C201.482 22.695 201.886 22.2484 202.405 21.9385C202.925 21.624 203.522 21.4668 204.196 21.4668C205.194 21.4668 206.003 21.7881 206.623 22.4307C207.247 23.0732 207.585 23.9255 207.635 24.9873L207.642 25.377C207.642 26.1061 207.5 26.7578 207.218 27.332C206.94 27.9062 206.539 28.3506 206.015 28.665C205.495 28.9795 204.894 29.1367 204.21 29.1367C203.166 29.1367 202.33 28.7904 201.701 28.0977C201.077 27.4004 200.765 26.473 200.765 25.3154V25.2334ZM202.426 25.377C202.426 26.138 202.583 26.735 202.897 27.168C203.212 27.5964 203.649 27.8105 204.21 27.8105C204.771 27.8105 205.206 27.5918 205.516 27.1543C205.83 26.7168 205.987 26.0765 205.987 25.2334C205.987 24.486 205.826 23.8936 205.502 23.4561C205.183 23.0186 204.748 22.7998 204.196 22.7998C203.654 22.7998 203.223 23.0163 202.904 23.4492C202.585 23.8776 202.426 24.5202 202.426 25.377ZM211.668 25.8281L210.93 26.5869V29H209.269V18.5H210.93V24.5566L211.449 23.9072L213.493 21.6035H215.489L212.741 24.6865L215.783 29H213.862L211.668 25.8281Z" fill="white"/>
<path fill-rule="evenodd" clip-rule="evenodd" d="M33.7858 13H14.2142C13.5435 13 13 13.5435 13 14.2142V33.7858C13 34.4564 13.5435 35 14.2142 35H24.7509V26.4805H21.8839V23.1602H24.7509V20.7116C24.7509 17.87 26.4864 16.3227 29.0213 16.3227C30.2355 16.3227 31.2791 16.4132 31.5832 16.4536V19.4232L29.8251 19.424C28.4465 19.424 28.1796 20.0791 28.1796 21.0404V23.1602H31.4675L31.0393 26.4805H28.1796V35H33.7858C34.4564 35 35 34.4564 35 33.7858V14.2142C35 13.5435 34.4564 13 33.7858 13" fill="white"/>
<defs>
<filter id="filter0_dd" x="3" y="3" width="252" height="43" filterUnits="userSpaceOnUse" color-interpolation-filters="sRGB">
<feFlood flood-opacity="0" result="BackgroundImageFix"/>
<feColorMatrix in="SourceAlpha" type="matrix" values="0 0 0 0 0 0 0 0 0 0 0 0 0 0 0 0 0 0 127 0"/>
<feOffset dy="1"/>
<feGaussianBlur stdDeviation="0.5"/>
<feColorMatrix type="matrix" values="0 0 0 0 0 0 0 0 0 0 0 0 0 0 0 0 0 0 0.24 0"/>
<feBlend mode="normal" in2="BackgroundImageFix" result="effect1_dropShadow"/>
<feColorMatrix in="SourceAlpha" type="matrix" values="0 0 0 0 0 0 0 0 0 0 0 0 0 0 0 0 0 0 127 0"/>
<feOffset/>
<feGaussianBlur stdDeviation="0.5"/>
<feColorMatrix type="matrix" values="0 0 0 0 0 0 0 0 0 0 0 0 0 0 0 0 0 0 0.12 0"/>
<feBlend mode="normal" in2="effect1_dropShadow" result="effect2_dropShadow"/>
<feBlend mode="normal" in="SourceGraphic" in2="effect2_dropShadow" result="shape"/>
</filter>
<clipPath id="clip0">
<rect x="4" y="4" width="250" height="40" rx="2" fill="white"/>
</clipPath>
</defs>
</svg>
