<svg width="258" height="48" viewBox="0 0 258 48" fill="none" xmlns="http://www.w3.org/2000/svg">
<g clip-path="url(#clip0)">
<g filter="url(#filter0_dd)">
<path fill-rule="evenodd" clip-rule="evenodd" d="M6 4C4.89543 4 4 4.89543 4 6V42C4 43.1046 4.89543 44 6 44H252C253.105 44 254 43.1046 254 42V6C254 4.89543 253.105 4 252 4H6Z" fill="#3B5998"/>
</g>
</g>
<path d="M76.2139 26.4365C76.2139 25.999 76.0589 25.6618 75.749 25.4248C75.4437 25.1878 74.89 24.9486 74.0879 24.707C73.2858 24.4655 72.6478 24.1966 72.1738 23.9004C71.2669 23.3307 70.8135 22.5879 70.8135 21.6719C70.8135 20.8698 71.1393 20.209 71.791 19.6895C72.4473 19.1699 73.2972 18.9102 74.3408 18.9102C75.0335 18.9102 75.651 19.0378 76.1934 19.293C76.7357 19.5482 77.1618 19.9128 77.4717 20.3867C77.7816 20.8561 77.9365 21.3779 77.9365 21.9521H76.2139C76.2139 21.4326 76.0498 21.027 75.7217 20.7354C75.3981 20.4391 74.9333 20.291 74.3271 20.291C73.762 20.291 73.3223 20.4118 73.0078 20.6533C72.6979 20.8949 72.543 21.2321 72.543 21.665C72.543 22.0296 72.7116 22.335 73.0488 22.5811C73.3861 22.8226 73.9421 23.0596 74.7168 23.292C75.4915 23.5199 76.1136 23.7819 76.583 24.0781C77.0524 24.3698 77.3965 24.707 77.6152 25.0898C77.834 25.4681 77.9434 25.9124 77.9434 26.4229C77.9434 27.2523 77.6243 27.9131 76.9863 28.4053C76.3529 28.8929 75.4915 29.1367 74.4023 29.1367C73.6823 29.1367 73.0192 29.0046 72.4131 28.7402C71.8115 28.4714 71.3421 28.1022 71.0049 27.6328C70.6722 27.1634 70.5059 26.6165 70.5059 25.9922H72.2354C72.2354 26.5573 72.4222 26.9948 72.7959 27.3047C73.1696 27.6146 73.7051 27.7695 74.4023 27.7695C75.0039 27.7695 75.4551 27.6488 75.7559 27.4072C76.0612 27.1611 76.2139 26.8376 76.2139 26.4365ZM81.2861 29H79.625V21.6035H81.2861V29ZM79.5225 19.6826C79.5225 19.4274 79.6022 19.2155 79.7617 19.0469C79.9258 18.8783 80.1582 18.7939 80.459 18.7939C80.7598 18.7939 80.9922 18.8783 81.1562 19.0469C81.3203 19.2155 81.4023 19.4274 81.4023 19.6826C81.4023 19.9333 81.3203 20.1429 81.1562 20.3115C80.9922 20.4756 80.7598 20.5576 80.459 20.5576C80.1582 20.5576 79.9258 20.4756 79.7617 20.3115C79.6022 20.1429 79.5225 19.9333 79.5225 19.6826ZM83.0293 25.2471C83.0293 24.0986 83.2982 23.1826 83.8359 22.499C84.3783 21.8109 85.096 21.4668 85.9893 21.4668C86.8324 21.4668 87.4954 21.7607 87.9785 22.3486L88.0537 21.6035H89.5508V28.7744C89.5508 29.7451 89.2477 30.5107 88.6416 31.0713C88.04 31.6318 87.2266 31.9121 86.2012 31.9121C85.6589 31.9121 85.1279 31.7982 84.6084 31.5703C84.0934 31.347 83.7015 31.0531 83.4326 30.6885L84.2188 29.6904C84.7292 30.2965 85.3581 30.5996 86.1055 30.5996C86.6569 30.5996 87.0921 30.4492 87.4111 30.1484C87.7301 29.8522 87.8896 29.4147 87.8896 28.8359V28.3369C87.4111 28.8701 86.7731 29.1367 85.9756 29.1367C85.1097 29.1367 84.401 28.7926 83.8496 28.1045C83.3027 27.4163 83.0293 26.4639 83.0293 25.2471ZM84.6836 25.3906C84.6836 26.1335 84.834 26.7191 85.1348 27.1475C85.4401 27.5713 85.8617 27.7832 86.3994 27.7832C87.0693 27.7832 87.5661 27.4961 87.8896 26.9219V23.668C87.5752 23.1074 87.083 22.8271 86.4131 22.8271C85.8662 22.8271 85.4401 23.0436 85.1348 23.4766C84.834 23.9095 84.6836 24.5475 84.6836 25.3906ZM93.0234 21.6035L93.0713 22.458C93.6182 21.7972 94.3359 21.4668 95.2246 21.4668C96.765 21.4668 97.5488 22.3486 97.5762 24.1123V29H95.915V24.208C95.915 23.7386 95.8125 23.3923 95.6074 23.1689C95.4069 22.9411 95.0765 22.8271 94.6162 22.8271C93.9463 22.8271 93.4473 23.1302 93.1191 23.7363V29H91.458V21.6035H93.0234ZM104.966 29H103.305V21.6035H104.966V29ZM103.202 19.6826C103.202 19.4274 103.282 19.2155 103.441 19.0469C103.605 18.8783 103.838 18.7939 104.139 18.7939C104.439 18.7939 104.672 18.8783 104.836 19.0469C105 19.2155 105.082 19.4274 105.082 19.6826C105.082 19.9333 105 20.1429 104.836 20.3115C104.672 20.4756 104.439 20.5576 104.139 20.5576C103.838 20.5576 103.605 20.4756 103.441 20.3115C103.282 20.1429 103.202 19.9333 103.202 19.6826ZM108.541 21.6035L108.589 22.458C109.136 21.7972 109.854 21.4668 110.742 21.4668C112.283 21.4668 113.066 22.3486 113.094 24.1123V29H111.433V24.208C111.433 23.7386 111.33 23.3923 111.125 23.1689C110.924 22.9411 110.594 22.8271 110.134 22.8271C109.464 22.8271 108.965 23.1302 108.637 23.7363V29H106.976V21.6035H108.541ZM125.214 26.71L126.39 21.6035H128.01L125.993 29H124.626L123.04 23.9209L121.481 29H120.114L118.091 21.6035H119.711L120.907 26.6553L122.425 21.6035H123.676L125.214 26.71ZM131.106 29H129.445V21.6035H131.106V29ZM129.343 19.6826C129.343 19.4274 129.423 19.2155 129.582 19.0469C129.746 18.8783 129.979 18.7939 130.279 18.7939C130.58 18.7939 130.812 18.8783 130.977 19.0469C131.141 19.2155 131.223 19.4274 131.223 19.6826C131.223 19.9333 131.141 20.1429 130.977 20.3115C130.812 20.4756 130.58 20.5576 130.279 20.5576C129.979 20.5576 129.746 20.4756 129.582 20.3115C129.423 20.1429 129.343 19.9333 129.343 19.6826ZM135.222 19.8057V21.6035H136.527V22.834H135.222V26.9629C135.222 27.2454 135.276 27.4505 135.386 27.5781C135.5 27.7012 135.7 27.7627 135.987 27.7627C136.179 27.7627 136.372 27.7399 136.568 27.6943V28.9795C136.19 29.0843 135.826 29.1367 135.475 29.1367C134.199 29.1367 133.561 28.4326 133.561 27.0244V22.834H132.344V21.6035H133.561V19.8057H135.222ZM139.658 22.4102C140.201 21.7812 140.886 21.4668 141.716 21.4668C143.293 21.4668 144.092 22.3669 144.115 24.167V29H142.454V24.2285C142.454 23.7181 142.342 23.3581 142.119 23.1484C141.9 22.9342 141.577 22.8271 141.148 22.8271C140.483 22.8271 139.986 23.1234 139.658 23.7158V29H137.997V18.5H139.658V22.4102ZM155.62 24.7822H151.614V29H149.885V19.0469H156.208V20.4414H151.614V23.4014H155.62V24.7822ZM161.827 29C161.754 28.8587 161.69 28.6286 161.636 28.3096C161.107 28.861 160.46 29.1367 159.694 29.1367C158.951 29.1367 158.345 28.9248 157.876 28.501C157.407 28.0771 157.172 27.5531 157.172 26.9287C157.172 26.1403 157.464 25.5365 158.047 25.1172C158.635 24.6934 159.473 24.4814 160.562 24.4814H161.581V23.9961C161.581 23.6133 161.474 23.3079 161.26 23.0801C161.046 22.8477 160.72 22.7314 160.282 22.7314C159.904 22.7314 159.594 22.8271 159.353 23.0186C159.111 23.2054 158.99 23.4447 158.99 23.7363H157.329C157.329 23.3307 157.464 22.9525 157.732 22.6016C158.001 22.2461 158.366 21.9681 158.826 21.7676C159.291 21.5671 159.808 21.4668 160.378 21.4668C161.244 21.4668 161.934 21.6855 162.449 22.123C162.964 22.556 163.229 23.1667 163.242 23.9551V27.291C163.242 27.9564 163.336 28.4873 163.522 28.8838V29H161.827ZM160.002 27.8037C160.33 27.8037 160.638 27.724 160.925 27.5645C161.216 27.4049 161.435 27.1908 161.581 26.9219V25.5273H160.686C160.07 25.5273 159.608 25.6344 159.298 25.8486C158.988 26.0628 158.833 26.3659 158.833 26.7578C158.833 27.0768 158.938 27.332 159.147 27.5234C159.362 27.7103 159.646 27.8037 160.002 27.8037ZM168.239 27.8105C168.654 27.8105 168.998 27.6898 169.271 27.4482C169.545 27.2067 169.691 26.9082 169.709 26.5527H171.274C171.256 27.013 171.113 27.4437 170.844 27.8447C170.575 28.2412 170.21 28.5557 169.75 28.7881C169.29 29.0205 168.793 29.1367 168.26 29.1367C167.225 29.1367 166.405 28.8018 165.799 28.1318C165.193 27.4619 164.89 26.5368 164.89 25.3564V25.1855C164.89 24.0599 165.19 23.1598 165.792 22.4854C166.394 21.8063 167.214 21.4668 168.253 21.4668C169.132 21.4668 169.848 21.7243 170.399 22.2393C170.955 22.7497 171.247 23.4219 171.274 24.2559H169.709C169.691 23.832 169.545 23.4834 169.271 23.21C169.003 22.9365 168.659 22.7998 168.239 22.7998C167.701 22.7998 167.287 22.9958 166.995 23.3877C166.703 23.7751 166.555 24.3652 166.551 25.1582V25.4248C166.551 26.2269 166.694 26.8262 166.981 27.2227C167.273 27.6146 167.692 27.8105 168.239 27.8105ZM176.005 29.1367C174.952 29.1367 174.098 28.8063 173.441 28.1455C172.79 27.4801 172.464 26.596 172.464 25.4932V25.2881C172.464 24.5498 172.605 23.8913 172.888 23.3125C173.175 22.7292 173.576 22.2757 174.091 21.9521C174.606 21.6286 175.18 21.4668 175.813 21.4668C176.821 21.4668 177.598 21.7881 178.145 22.4307C178.696 23.0732 178.972 23.9824 178.972 25.1582V25.8281H174.139C174.189 26.4388 174.392 26.9219 174.747 27.2773C175.107 27.6328 175.558 27.8105 176.101 27.8105C176.862 27.8105 177.481 27.5029 177.96 26.8877L178.855 27.7422C178.559 28.1842 178.163 28.5283 177.666 28.7744C177.174 29.016 176.62 29.1367 176.005 29.1367ZM175.807 22.7998C175.351 22.7998 174.982 22.9593 174.699 23.2783C174.421 23.5973 174.243 24.0417 174.166 24.6113H177.331V24.4883C177.295 23.9323 177.146 23.513 176.887 23.2305C176.627 22.9434 176.267 22.7998 175.807 22.7998ZM186.977 25.377C186.977 26.5254 186.719 27.4391 186.204 28.1182C185.694 28.7972 184.99 29.1367 184.092 29.1367C183.226 29.1367 182.551 28.8245 182.068 28.2002L181.986 29H180.482V18.5H182.144V22.3145C182.622 21.7493 183.267 21.4668 184.078 21.4668C184.98 21.4668 185.689 21.8018 186.204 22.4717C186.719 23.1416 186.977 24.0781 186.977 25.2812V25.377ZM185.315 25.2334C185.315 24.4313 185.174 23.8298 184.892 23.4287C184.609 23.0277 184.199 22.8271 183.661 22.8271C182.941 22.8271 182.435 23.1416 182.144 23.7705V26.8193C182.44 27.4619 182.95 27.7832 183.675 27.7832C184.194 27.7832 184.595 27.5895 184.878 27.2021C185.16 26.8148 185.306 26.2292 185.315 25.4453V25.2334ZM188.282 25.2334C188.282 24.5088 188.426 23.8571 188.713 23.2783C189 22.695 189.403 22.2484 189.923 21.9385C190.442 21.624 191.039 21.4668 191.714 21.4668C192.712 21.4668 193.521 21.7881 194.141 22.4307C194.765 23.0732 195.102 23.9255 195.152 24.9873L195.159 25.377C195.159 26.1061 195.018 26.7578 194.735 27.332C194.457 27.9062 194.056 28.3506 193.532 28.665C193.013 28.9795 192.411 29.1367 191.728 29.1367C190.684 29.1367 189.848 28.7904 189.219 28.0977C188.594 27.4004 188.282 26.473 188.282 25.3154V25.2334ZM189.943 25.377C189.943 26.138 190.101 26.735 190.415 27.168C190.729 27.5964 191.167 27.8105 191.728 27.8105C192.288 27.8105 192.723 27.5918 193.033 27.1543C193.348 26.7168 193.505 26.0765 193.505 25.2334C193.505 24.486 193.343 23.8936 193.02 23.4561C192.701 23.0186 192.265 22.7998 191.714 22.7998C191.172 22.7998 190.741 23.0163 190.422 23.4492C190.103 23.8776 189.943 24.5202 189.943 25.377ZM196.472 25.2334C196.472 24.5088 196.615 23.8571 196.902 23.2783C197.189 22.695 197.593 22.2484 198.112 21.9385C198.632 21.624 199.229 21.4668 199.903 21.4668C200.901 21.4668 201.71 21.7881 202.33 22.4307C202.954 23.0732 203.292 23.9255 203.342 24.9873L203.349 25.377C203.349 26.1061 203.207 26.7578 202.925 27.332C202.647 27.9062 202.246 28.3506 201.722 28.665C201.202 28.9795 200.601 29.1367 199.917 29.1367C198.873 29.1367 198.037 28.7904 197.408 28.0977C196.784 27.4004 196.472 26.473 196.472 25.3154V25.2334ZM198.133 25.377C198.133 26.138 198.29 26.735 198.604 27.168C198.919 27.5964 199.356 27.8105 199.917 27.8105C200.478 27.8105 200.913 27.5918 201.223 27.1543C201.537 26.7168 201.694 26.0765 201.694 25.2334C201.694 24.486 201.533 23.8936 201.209 23.4561C200.89 23.0186 200.455 22.7998 199.903 22.7998C199.361 22.7998 198.93 23.0163 198.611 23.4492C198.292 23.8776 198.133 24.5202 198.133 25.377ZM207.375 25.8281L206.637 26.5869V29H204.976V18.5H206.637V24.5566L207.156 23.9072L209.2 21.6035H211.196L208.448 24.6865L211.49 29H209.569L207.375 25.8281Z" fill="white"/>
<path fill-rule="evenodd" clip-rule="evenodd" d="M33.7858 13H14.2142C13.5435 13 13 13.5435 13 14.2142V33.7858C13 34.4564 13.5435 35 14.2142 35H24.7509V26.4805H21.8839V23.1602H24.7509V20.7116C24.7509 17.87 26.4864 16.3227 29.0213 16.3227C30.2355 16.3227 31.2791 16.4132 31.5832 16.4536V19.4232L29.8251 19.424C28.4465 19.424 28.1796 20.0791 28.1796 21.0404V23.1602H31.4675L31.0393 26.4805H28.1796V35H33.7858C34.4564 35 35 34.4564 35 33.7858V14.2142C35 13.5435 34.4564 13 33.7858 13" fill="white"/>
<defs>
<filter id="filter0_dd" x="3" y="3" width="252" height="43" filterUnits="userSpaceOnUse" color-interpolation-filters="sRGB">
<feFlood flood-opacity="0" result="BackgroundImageFix"/>
<feColorMatrix in="SourceAlpha" type="matrix" values="0 0 0 0 0 0 0 0 0 0 0 0 0 0 0 0 0 0 127 0"/>
<feOffset dy="1"/>
<feGaussianBlur stdDeviation="0.5"/>
<feColorMatrix type="matrix" values="0 0 0 0 0 0 0 0 0 0 0 0 0 0 0 0 0 0 0.24 0"/>
<feBlend mode="normal" in2="BackgroundImageFix" result="effect1_dropShadow"/>
<feColorMatrix in="SourceAlpha" type="matrix" values="0 0 0 0 0 0 0 0 0 0 0 0 0 0 0 0 0 0 127 0"/>
<feOffset/>
<feGaussianBlur stdDeviation="0.5"/>
<feColorMatrix type="matrix" values="0 0 0 0 0 0 0 0 0 0 0 0 0 0 0 0 0 0 0.12 0"/>
<feBlend mode="normal" in2="effect1_dropShadow" result="effect2_dropShadow"/>
<feBlend mode="normal" in="SourceGraphic" in2="effect2_dropShadow" result="shape"/>
</filter>
<clipPath id="clip0">
<rect x="4" y="4" width="250" height="40" rx="2" fill="white"/>
</clipPath>
</defs>
</svg>
