<svg width="258" height="48" viewBox="0 0 258 48" fill="none" xmlns="http://www.w3.org/2000/svg">
<g clip-path="url(#clip0)">
<g filter="url(#filter0_dd)">
<path fill-rule="evenodd" clip-rule="evenodd" d="M7 4C5.89543 4 5 4.89543 5 6V42C5 43.1046 5.89543 44 7 44H253C254.105 44 255 43.1046 255 42V6C255 4.89543 254.105 4 253 4H7Z" fill="#4285F4"/>
</g>
</g>
<path d="M91.2139 26.4365C91.2139 25.999 91.0589 25.6618 90.749 25.4248C90.4437 25.1878 89.89 24.9486 89.0879 24.707C88.2858 24.4655 87.6478 24.1966 87.1738 23.9004C86.2669 23.3307 85.8135 22.5879 85.8135 21.6719C85.8135 20.8698 86.1393 20.209 86.791 19.6895C87.4473 19.1699 88.2972 18.9102 89.3408 18.9102C90.0335 18.9102 90.651 19.0378 91.1934 19.293C91.7357 19.5482 92.1618 19.9128 92.4717 20.3867C92.7816 20.8561 92.9365 21.3779 92.9365 21.9521H91.2139C91.2139 21.4326 91.0498 21.027 90.7217 20.7354C90.3981 20.4391 89.9333 20.291 89.3271 20.291C88.762 20.291 88.3223 20.4118 88.0078 20.6533C87.6979 20.8949 87.543 21.2321 87.543 21.665C87.543 22.0296 87.7116 22.335 88.0488 22.5811C88.3861 22.8226 88.9421 23.0596 89.7168 23.292C90.4915 23.5199 91.1136 23.7819 91.583 24.0781C92.0524 24.3698 92.3965 24.707 92.6152 25.0898C92.834 25.4681 92.9434 25.9124 92.9434 26.4229C92.9434 27.2523 92.6243 27.9131 91.9863 28.4053C91.3529 28.8929 90.4915 29.1367 89.4023 29.1367C88.6823 29.1367 88.0192 29.0046 87.4131 28.7402C86.8115 28.4714 86.3421 28.1022 86.0049 27.6328C85.6722 27.1634 85.5059 26.6165 85.5059 25.9922H87.2354C87.2354 26.5573 87.4222 26.9948 87.7959 27.3047C88.1696 27.6146 88.7051 27.7695 89.4023 27.7695C90.0039 27.7695 90.4551 27.6488 90.7559 27.4072C91.0612 27.1611 91.2139 26.8376 91.2139 26.4365ZM96.2861 29H94.625V21.6035H96.2861V29ZM94.5225 19.6826C94.5225 19.4274 94.6022 19.2155 94.7617 19.0469C94.9258 18.8783 95.1582 18.7939 95.459 18.7939C95.7598 18.7939 95.9922 18.8783 96.1562 19.0469C96.3203 19.2155 96.4023 19.4274 96.4023 19.6826C96.4023 19.9333 96.3203 20.1429 96.1562 20.3115C95.9922 20.4756 95.7598 20.5576 95.459 20.5576C95.1582 20.5576 94.9258 20.4756 94.7617 20.3115C94.6022 20.1429 94.5225 19.9333 94.5225 19.6826ZM98.0293 25.2471C98.0293 24.0986 98.2982 23.1826 98.8359 22.499C99.3783 21.8109 100.096 21.4668 100.989 21.4668C101.832 21.4668 102.495 21.7607 102.979 22.3486L103.054 21.6035H104.551V28.7744C104.551 29.7451 104.248 30.5107 103.642 31.0713C103.04 31.6318 102.227 31.9121 101.201 31.9121C100.659 31.9121 100.128 31.7982 99.6084 31.5703C99.0934 31.347 98.7015 31.0531 98.4326 30.6885L99.2188 29.6904C99.7292 30.2965 100.358 30.5996 101.105 30.5996C101.657 30.5996 102.092 30.4492 102.411 30.1484C102.73 29.8522 102.89 29.4147 102.89 28.8359V28.3369C102.411 28.8701 101.773 29.1367 100.976 29.1367C100.11 29.1367 99.401 28.7926 98.8496 28.1045C98.3027 27.4163 98.0293 26.4639 98.0293 25.2471ZM99.6836 25.3906C99.6836 26.1335 99.834 26.7191 100.135 27.1475C100.44 27.5713 100.862 27.7832 101.399 27.7832C102.069 27.7832 102.566 27.4961 102.89 26.9219V23.668C102.575 23.1074 102.083 22.8271 101.413 22.8271C100.866 22.8271 100.44 23.0436 100.135 23.4766C99.834 23.9095 99.6836 24.5475 99.6836 25.3906ZM108.023 21.6035L108.071 22.458C108.618 21.7972 109.336 21.4668 110.225 21.4668C111.765 21.4668 112.549 22.3486 112.576 24.1123V29H110.915V24.208C110.915 23.7386 110.812 23.3923 110.607 23.1689C110.407 22.9411 110.076 22.8271 109.616 22.8271C108.946 22.8271 108.447 23.1302 108.119 23.7363V29H106.458V21.6035H108.023ZM119.966 29H118.305V21.6035H119.966V29ZM118.202 19.6826C118.202 19.4274 118.282 19.2155 118.441 19.0469C118.605 18.8783 118.838 18.7939 119.139 18.7939C119.439 18.7939 119.672 18.8783 119.836 19.0469C120 19.2155 120.082 19.4274 120.082 19.6826C120.082 19.9333 120 20.1429 119.836 20.3115C119.672 20.4756 119.439 20.5576 119.139 20.5576C118.838 20.5576 118.605 20.4756 118.441 20.3115C118.282 20.1429 118.202 19.9333 118.202 19.6826ZM123.541 21.6035L123.589 22.458C124.136 21.7972 124.854 21.4668 125.742 21.4668C127.283 21.4668 128.066 22.3486 128.094 24.1123V29H126.433V24.208C126.433 23.7386 126.33 23.3923 126.125 23.1689C125.924 22.9411 125.594 22.8271 125.134 22.8271C124.464 22.8271 123.965 23.1302 123.637 23.7363V29H121.976V21.6035H123.541ZM140.214 26.71L141.39 21.6035H143.01L140.993 29H139.626L138.04 23.9209L136.481 29H135.114L133.091 21.6035H134.711L135.907 26.6553L137.425 21.6035H138.676L140.214 26.71ZM146.106 29H144.445V21.6035H146.106V29ZM144.343 19.6826C144.343 19.4274 144.423 19.2155 144.582 19.0469C144.746 18.8783 144.979 18.7939 145.279 18.7939C145.58 18.7939 145.812 18.8783 145.977 19.0469C146.141 19.2155 146.223 19.4274 146.223 19.6826C146.223 19.9333 146.141 20.1429 145.977 20.3115C145.812 20.4756 145.58 20.5576 145.279 20.5576C144.979 20.5576 144.746 20.4756 144.582 20.3115C144.423 20.1429 144.343 19.9333 144.343 19.6826ZM150.222 19.8057V21.6035H151.527V22.834H150.222V26.9629C150.222 27.2454 150.276 27.4505 150.386 27.5781C150.5 27.7012 150.7 27.7627 150.987 27.7627C151.179 27.7627 151.372 27.7399 151.568 27.6943V28.9795C151.19 29.0843 150.826 29.1367 150.475 29.1367C149.199 29.1367 148.561 28.4326 148.561 27.0244V22.834H147.344V21.6035H148.561V19.8057H150.222ZM154.658 22.4102C155.201 21.7812 155.886 21.4668 156.716 21.4668C158.293 21.4668 159.092 22.3669 159.115 24.167V29H157.454V24.2285C157.454 23.7181 157.342 23.3581 157.119 23.1484C156.9 22.9342 156.577 22.8271 156.148 22.8271C155.483 22.8271 154.986 23.1234 154.658 23.7158V29H152.997V18.5H154.658V22.4102ZM172.514 27.708C172.154 28.1774 171.655 28.5329 171.017 28.7744C170.379 29.016 169.654 29.1367 168.843 29.1367C168.009 29.1367 167.271 28.9476 166.628 28.5693C165.985 28.1911 165.489 27.651 165.138 26.9492C164.791 26.2428 164.611 25.4202 164.598 24.4814V23.7021C164.598 22.1982 164.958 21.0247 165.678 20.1816C166.398 19.334 167.403 18.9102 168.692 18.9102C169.8 18.9102 170.679 19.1836 171.331 19.7305C171.983 20.2773 172.375 21.0658 172.507 22.0957H170.812C170.62 20.8971 169.925 20.2979 168.727 20.2979C167.952 20.2979 167.362 20.5781 166.956 21.1387C166.555 21.6947 166.348 22.5127 166.334 23.5928V24.3584C166.334 25.4339 166.56 26.2702 167.011 26.8672C167.466 27.4596 168.098 27.7559 168.904 27.7559C169.788 27.7559 170.417 27.5553 170.791 27.1543V25.2061H168.74V23.8936H172.514V27.708ZM174.161 25.2334C174.161 24.5088 174.305 23.8571 174.592 23.2783C174.879 22.695 175.282 22.2484 175.802 21.9385C176.321 21.624 176.918 21.4668 177.593 21.4668C178.591 21.4668 179.4 21.7881 180.02 22.4307C180.644 23.0732 180.981 23.9255 181.031 24.9873L181.038 25.377C181.038 26.1061 180.897 26.7578 180.614 27.332C180.336 27.9062 179.935 28.3506 179.411 28.665C178.892 28.9795 178.29 29.1367 177.606 29.1367C176.563 29.1367 175.727 28.7904 175.098 28.0977C174.473 27.4004 174.161 26.473 174.161 25.3154V25.2334ZM175.822 25.377C175.822 26.138 175.979 26.735 176.294 27.168C176.608 27.5964 177.046 27.8105 177.606 27.8105C178.167 27.8105 178.602 27.5918 178.912 27.1543C179.227 26.7168 179.384 26.0765 179.384 25.2334C179.384 24.486 179.222 23.8936 178.898 23.4561C178.579 23.0186 178.144 22.7998 177.593 22.7998C177.05 22.7998 176.62 23.0163 176.301 23.4492C175.982 23.8776 175.822 24.5202 175.822 25.377ZM182.351 25.2334C182.351 24.5088 182.494 23.8571 182.781 23.2783C183.068 22.695 183.472 22.2484 183.991 21.9385C184.511 21.624 185.108 21.4668 185.782 21.4668C186.78 21.4668 187.589 21.7881 188.209 22.4307C188.833 23.0732 189.171 23.9255 189.221 24.9873L189.228 25.377C189.228 26.1061 189.086 26.7578 188.804 27.332C188.526 27.9062 188.125 28.3506 187.601 28.665C187.081 28.9795 186.479 29.1367 185.796 29.1367C184.752 29.1367 183.916 28.7904 183.287 28.0977C182.663 27.4004 182.351 26.473 182.351 25.3154V25.2334ZM184.012 25.377C184.012 26.138 184.169 26.735 184.483 27.168C184.798 27.5964 185.235 27.8105 185.796 27.8105C186.356 27.8105 186.792 27.5918 187.102 27.1543C187.416 26.7168 187.573 26.0765 187.573 25.2334C187.573 24.486 187.411 23.8936 187.088 23.4561C186.769 23.0186 186.334 22.7998 185.782 22.7998C185.24 22.7998 184.809 23.0163 184.49 23.4492C184.171 23.8776 184.012 24.5202 184.012 25.377ZM190.561 25.2471C190.561 24.0986 190.829 23.1826 191.367 22.499C191.91 21.8109 192.627 21.4668 193.521 21.4668C194.364 21.4668 195.027 21.7607 195.51 22.3486L195.585 21.6035H197.082V28.7744C197.082 29.7451 196.779 30.5107 196.173 31.0713C195.571 31.6318 194.758 31.9121 193.732 31.9121C193.19 31.9121 192.659 31.7982 192.14 31.5703C191.625 31.347 191.233 31.0531 190.964 30.6885L191.75 29.6904C192.26 30.2965 192.889 30.5996 193.637 30.5996C194.188 30.5996 194.623 30.4492 194.942 30.1484C195.261 29.8522 195.421 29.4147 195.421 28.8359V28.3369C194.942 28.8701 194.304 29.1367 193.507 29.1367C192.641 29.1367 191.932 28.7926 191.381 28.1045C190.834 27.4163 190.561 26.4639 190.561 25.2471ZM192.215 25.3906C192.215 26.1335 192.365 26.7191 192.666 27.1475C192.971 27.5713 193.393 27.7832 193.931 27.7832C194.601 27.7832 195.097 27.4961 195.421 26.9219V23.668C195.106 23.1074 194.614 22.8271 193.944 22.8271C193.397 22.8271 192.971 23.0436 192.666 23.4766C192.365 23.9095 192.215 24.5475 192.215 25.3906ZM200.78 29H199.119V18.5H200.78V29ZM206.071 29.1367C205.019 29.1367 204.164 28.8063 203.508 28.1455C202.856 27.4801 202.53 26.596 202.53 25.4932V25.2881C202.53 24.5498 202.672 23.8913 202.954 23.3125C203.241 22.7292 203.642 22.2757 204.157 21.9521C204.672 21.6286 205.246 21.4668 205.88 21.4668C206.887 21.4668 207.664 21.7881 208.211 22.4307C208.762 23.0732 209.038 23.9824 209.038 25.1582V25.8281H204.205C204.255 26.4388 204.458 26.9219 204.813 27.2773C205.174 27.6328 205.625 27.8105 206.167 27.8105C206.928 27.8105 207.548 27.5029 208.026 26.8877L208.922 27.7422C208.626 28.1842 208.229 28.5283 207.732 28.7744C207.24 29.016 206.687 29.1367 206.071 29.1367ZM205.873 22.7998C205.417 22.7998 205.048 22.9593 204.766 23.2783C204.488 23.5973 204.31 24.0417 204.232 24.6113H207.397V24.4883C207.361 23.9323 207.213 23.513 206.953 23.2305C206.693 22.9434 206.333 22.7998 205.873 22.7998Z" fill="white"/>
<path fill-rule="evenodd" clip-rule="evenodd" d="M7 5C6.44772 5 6 5.44772 6 6V42C6 42.5523 6.44772 43 7 43H43C43.5523 43 44 42.5523 44 42V6C44 5.44772 43.5523 5 43 5H7Z" fill="white"/>
<path fill-rule="evenodd" clip-rule="evenodd" d="M32.64 24.2046C32.64 23.5664 32.5827 22.9527 32.4764 22.3636H24V25.845H28.8436C28.635 26.97 28.0009 27.9232 27.0477 28.5614V30.8196H29.9564C31.6582 29.2527 32.64 26.9455 32.64 24.2046V24.2046Z" fill="#4285F4"/>
<path fill-rule="evenodd" clip-rule="evenodd" d="M24 33C26.43 33 28.4673 32.1941 29.9564 30.8196L27.0477 28.5614C26.2418 29.1014 25.2109 29.4205 24 29.4205C21.6559 29.4205 19.6718 27.8373 18.9641 25.71H15.9573V28.0418C17.4382 30.9832 20.4818 33 24 33V33Z" fill="#34A853"/>
<path fill-rule="evenodd" clip-rule="evenodd" d="M18.9641 25.71C18.7841 25.17 18.6818 24.5932 18.6818 24C18.6818 23.4068 18.7841 22.83 18.9641 22.29V19.9582H15.9573C15.3477 21.1732 15 22.5477 15 24C15 25.4523 15.3477 26.8268 15.9573 28.0418L18.9641 25.71V25.71Z" fill="#FBBC05"/>
<path fill-rule="evenodd" clip-rule="evenodd" d="M24 18.5795C25.3214 18.5795 26.5077 19.0336 27.4405 19.9255L30.0218 17.3441C28.4632 15.8918 26.4259 15 24 15C20.4818 15 17.4382 17.0168 15.9573 19.9582L18.9641 22.29C19.6718 20.1627 21.6559 18.5795 24 18.5795V18.5795Z" fill="#EA4335"/>
<defs>
<filter id="filter0_dd" x="4" y="3" width="252" height="43" filterUnits="userSpaceOnUse" color-interpolation-filters="sRGB">
<feFlood flood-opacity="0" result="BackgroundImageFix"/>
<feColorMatrix in="SourceAlpha" type="matrix" values="0 0 0 0 0 0 0 0 0 0 0 0 0 0 0 0 0 0 127 0"/>
<feOffset dy="1"/>
<feGaussianBlur stdDeviation="0.5"/>
<feColorMatrix type="matrix" values="0 0 0 0 0 0 0 0 0 0 0 0 0 0 0 0 0 0 0.24 0"/>
<feBlend mode="normal" in2="BackgroundImageFix" result="effect1_dropShadow"/>
<feColorMatrix in="SourceAlpha" type="matrix" values="0 0 0 0 0 0 0 0 0 0 0 0 0 0 0 0 0 0 127 0"/>
<feOffset/>
<feGaussianBlur stdDeviation="0.5"/>
<feColorMatrix type="matrix" values="0 0 0 0 0 0 0 0 0 0 0 0 0 0 0 0 0 0 0.12 0"/>
<feBlend mode="normal" in2="effect1_dropShadow" result="effect2_dropShadow"/>
<feBlend mode="normal" in="SourceGraphic" in2="effect2_dropShadow" result="shape"/>
</filter>
<clipPath id="clip0">
<rect width="250" height="40" fill="white" transform="translate(5 4)"/>
</clipPath>
</defs>
</svg>
