<svg width="258" height="48" viewBox="0 0 258 48" fill="none" xmlns="http://www.w3.org/2000/svg">
<g clip-path="url(#clip0)">
<g filter="url(#filter0_dd)">
<path fill-rule="evenodd" clip-rule="evenodd" d="M7 4C5.89543 4 5 4.89543 5 6V42C5 43.1046 5.89543 44 7 44H253C254.105 44 255 43.1046 255 42V6C255 4.89543 254.105 4 253 4H7Z" fill="#4285F4"/>
</g>
</g>
<path d="M84.2139 26.4365C84.2139 25.999 84.0589 25.6618 83.749 25.4248C83.4437 25.1878 82.89 24.9486 82.0879 24.707C81.2858 24.4655 80.6478 24.1966 80.1738 23.9004C79.2669 23.3307 78.8135 22.5879 78.8135 21.6719C78.8135 20.8698 79.1393 20.209 79.791 19.6895C80.4473 19.1699 81.2972 18.9102 82.3408 18.9102C83.0335 18.9102 83.651 19.0378 84.1934 19.293C84.7357 19.5482 85.1618 19.9128 85.4717 20.3867C85.7816 20.8561 85.9365 21.3779 85.9365 21.9521H84.2139C84.2139 21.4326 84.0498 21.027 83.7217 20.7354C83.3981 20.4391 82.9333 20.291 82.3271 20.291C81.762 20.291 81.3223 20.4118 81.0078 20.6533C80.6979 20.8949 80.543 21.2321 80.543 21.665C80.543 22.0296 80.7116 22.335 81.0488 22.5811C81.3861 22.8226 81.9421 23.0596 82.7168 23.292C83.4915 23.5199 84.1136 23.7819 84.583 24.0781C85.0524 24.3698 85.3965 24.707 85.6152 25.0898C85.834 25.4681 85.9434 25.9124 85.9434 26.4229C85.9434 27.2523 85.6243 27.9131 84.9863 28.4053C84.3529 28.8929 83.4915 29.1367 82.4023 29.1367C81.6823 29.1367 81.0192 29.0046 80.4131 28.7402C79.8115 28.4714 79.3421 28.1022 79.0049 27.6328C78.6722 27.1634 78.5059 26.6165 78.5059 25.9922H80.2354C80.2354 26.5573 80.4222 26.9948 80.7959 27.3047C81.1696 27.6146 81.7051 27.7695 82.4023 27.7695C83.0039 27.7695 83.4551 27.6488 83.7559 27.4072C84.0612 27.1611 84.2139 26.8376 84.2139 26.4365ZM89.2861 29H87.625V21.6035H89.2861V29ZM87.5225 19.6826C87.5225 19.4274 87.6022 19.2155 87.7617 19.0469C87.9258 18.8783 88.1582 18.7939 88.459 18.7939C88.7598 18.7939 88.9922 18.8783 89.1562 19.0469C89.3203 19.2155 89.4023 19.4274 89.4023 19.6826C89.4023 19.9333 89.3203 20.1429 89.1562 20.3115C88.9922 20.4756 88.7598 20.5576 88.459 20.5576C88.1582 20.5576 87.9258 20.4756 87.7617 20.3115C87.6022 20.1429 87.5225 19.9333 87.5225 19.6826ZM91.0293 25.2471C91.0293 24.0986 91.2982 23.1826 91.8359 22.499C92.3783 21.8109 93.096 21.4668 93.9893 21.4668C94.8324 21.4668 95.4954 21.7607 95.9785 22.3486L96.0537 21.6035H97.5508V28.7744C97.5508 29.7451 97.2477 30.5107 96.6416 31.0713C96.04 31.6318 95.2266 31.9121 94.2012 31.9121C93.6589 31.9121 93.1279 31.7982 92.6084 31.5703C92.0934 31.347 91.7015 31.0531 91.4326 30.6885L92.2188 29.6904C92.7292 30.2965 93.3581 30.5996 94.1055 30.5996C94.6569 30.5996 95.0921 30.4492 95.4111 30.1484C95.7301 29.8522 95.8896 29.4147 95.8896 28.8359V28.3369C95.4111 28.8701 94.7731 29.1367 93.9756 29.1367C93.1097 29.1367 92.401 28.7926 91.8496 28.1045C91.3027 27.4163 91.0293 26.4639 91.0293 25.2471ZM92.6836 25.3906C92.6836 26.1335 92.834 26.7191 93.1348 27.1475C93.4401 27.5713 93.8617 27.7832 94.3994 27.7832C95.0693 27.7832 95.5661 27.4961 95.8896 26.9219V23.668C95.5752 23.1074 95.083 22.8271 94.4131 22.8271C93.8662 22.8271 93.4401 23.0436 93.1348 23.4766C92.834 23.9095 92.6836 24.5475 92.6836 25.3906ZM101.023 21.6035L101.071 22.458C101.618 21.7972 102.336 21.4668 103.225 21.4668C104.765 21.4668 105.549 22.3486 105.576 24.1123V29H103.915V24.208C103.915 23.7386 103.812 23.3923 103.607 23.1689C103.407 22.9411 103.076 22.8271 102.616 22.8271C101.946 22.8271 101.447 23.1302 101.119 23.7363V29H99.458V21.6035H101.023ZM115.68 28.2754C115.192 28.8496 114.499 29.1367 113.602 29.1367C112.799 29.1367 112.191 28.902 111.776 28.4326C111.366 27.9632 111.161 27.2842 111.161 26.3955V21.6035H112.822V26.375C112.822 27.3138 113.212 27.7832 113.991 27.7832C114.798 27.7832 115.342 27.4938 115.625 26.915V21.6035H117.286V29H115.721L115.68 28.2754ZM125.674 25.377C125.674 26.5208 125.414 27.4346 124.895 28.1182C124.375 28.7972 123.678 29.1367 122.803 29.1367C121.992 29.1367 121.342 28.8701 120.854 28.3369V31.8438H119.193V21.6035H120.725L120.793 22.3555C121.281 21.763 121.944 21.4668 122.782 21.4668C123.685 21.4668 124.391 21.804 124.901 22.4785C125.416 23.1484 125.674 24.0804 125.674 25.2744V25.377ZM124.02 25.2334C124.02 24.4951 123.871 23.9095 123.575 23.4766C123.284 23.0436 122.864 22.8271 122.317 22.8271C121.638 22.8271 121.151 23.1074 120.854 23.668V26.9492C121.155 27.5234 121.647 27.8105 122.331 27.8105C122.86 27.8105 123.272 27.5986 123.568 27.1748C123.869 26.7464 124.02 26.0993 124.02 25.2334ZM137.507 26.71L138.683 21.6035H140.303L138.286 29H136.919L135.333 23.9209L133.774 29H132.407L130.384 21.6035H132.004L133.2 26.6553L134.718 21.6035H135.969L137.507 26.71ZM143.399 29H141.738V21.6035H143.399V29ZM141.636 19.6826C141.636 19.4274 141.715 19.2155 141.875 19.0469C142.039 18.8783 142.271 18.7939 142.572 18.7939C142.873 18.7939 143.105 18.8783 143.27 19.0469C143.434 19.2155 143.516 19.4274 143.516 19.6826C143.516 19.9333 143.434 20.1429 143.27 20.3115C143.105 20.4756 142.873 20.5576 142.572 20.5576C142.271 20.5576 142.039 20.4756 141.875 20.3115C141.715 20.1429 141.636 19.9333 141.636 19.6826ZM147.515 19.8057V21.6035H148.82V22.834H147.515V26.9629C147.515 27.2454 147.569 27.4505 147.679 27.5781C147.793 27.7012 147.993 27.7627 148.28 27.7627C148.472 27.7627 148.665 27.7399 148.861 27.6943V28.9795C148.483 29.0843 148.118 29.1367 147.768 29.1367C146.492 29.1367 145.854 28.4326 145.854 27.0244V22.834H144.637V21.6035H145.854V19.8057H147.515ZM151.951 22.4102C152.493 21.7812 153.179 21.4668 154.009 21.4668C155.586 21.4668 156.385 22.3669 156.408 24.167V29H154.747V24.2285C154.747 23.7181 154.635 23.3581 154.412 23.1484C154.193 22.9342 153.87 22.8271 153.441 22.8271C152.776 22.8271 152.279 23.1234 151.951 23.7158V29H150.29V18.5H151.951V22.4102ZM169.807 27.708C169.447 28.1774 168.948 28.5329 168.31 28.7744C167.672 29.016 166.947 29.1367 166.136 29.1367C165.302 29.1367 164.563 28.9476 163.921 28.5693C163.278 28.1911 162.782 27.651 162.431 26.9492C162.084 26.2428 161.904 25.4202 161.891 24.4814V23.7021C161.891 22.1982 162.251 21.0247 162.971 20.1816C163.691 19.334 164.696 18.9102 165.985 18.9102C167.093 18.9102 167.972 19.1836 168.624 19.7305C169.276 20.2773 169.668 21.0658 169.8 22.0957H168.104C167.913 20.8971 167.218 20.2979 166.02 20.2979C165.245 20.2979 164.655 20.5781 164.249 21.1387C163.848 21.6947 163.641 22.5127 163.627 23.5928V24.3584C163.627 25.4339 163.853 26.2702 164.304 26.8672C164.759 27.4596 165.391 27.7559 166.197 27.7559C167.081 27.7559 167.71 27.5553 168.084 27.1543V25.2061H166.033V23.8936H169.807V27.708ZM171.454 25.2334C171.454 24.5088 171.598 23.8571 171.885 23.2783C172.172 22.695 172.575 22.2484 173.095 21.9385C173.614 21.624 174.211 21.4668 174.886 21.4668C175.884 21.4668 176.693 21.7881 177.312 22.4307C177.937 23.0732 178.274 23.9255 178.324 24.9873L178.331 25.377C178.331 26.1061 178.19 26.7578 177.907 27.332C177.629 27.9062 177.228 28.3506 176.704 28.665C176.185 28.9795 175.583 29.1367 174.899 29.1367C173.856 29.1367 173.02 28.7904 172.391 28.0977C171.766 27.4004 171.454 26.473 171.454 25.3154V25.2334ZM173.115 25.377C173.115 26.138 173.272 26.735 173.587 27.168C173.901 27.5964 174.339 27.8105 174.899 27.8105C175.46 27.8105 175.895 27.5918 176.205 27.1543C176.52 26.7168 176.677 26.0765 176.677 25.2334C176.677 24.486 176.515 23.8936 176.191 23.4561C175.872 23.0186 175.437 22.7998 174.886 22.7998C174.343 22.7998 173.913 23.0163 173.594 23.4492C173.275 23.8776 173.115 24.5202 173.115 25.377ZM179.644 25.2334C179.644 24.5088 179.787 23.8571 180.074 23.2783C180.361 22.695 180.765 22.2484 181.284 21.9385C181.804 21.624 182.401 21.4668 183.075 21.4668C184.073 21.4668 184.882 21.7881 185.502 22.4307C186.126 23.0732 186.464 23.9255 186.514 24.9873L186.521 25.377C186.521 26.1061 186.379 26.7578 186.097 27.332C185.819 27.9062 185.418 28.3506 184.894 28.665C184.374 28.9795 183.772 29.1367 183.089 29.1367C182.045 29.1367 181.209 28.7904 180.58 28.0977C179.956 27.4004 179.644 26.473 179.644 25.3154V25.2334ZM181.305 25.377C181.305 26.138 181.462 26.735 181.776 27.168C182.091 27.5964 182.528 27.8105 183.089 27.8105C183.649 27.8105 184.085 27.5918 184.395 27.1543C184.709 26.7168 184.866 26.0765 184.866 25.2334C184.866 24.486 184.704 23.8936 184.381 23.4561C184.062 23.0186 183.627 22.7998 183.075 22.7998C182.533 22.7998 182.102 23.0163 181.783 23.4492C181.464 23.8776 181.305 24.5202 181.305 25.377ZM187.854 25.2471C187.854 24.0986 188.122 23.1826 188.66 22.499C189.202 21.8109 189.92 21.4668 190.813 21.4668C191.657 21.4668 192.32 21.7607 192.803 22.3486L192.878 21.6035H194.375V28.7744C194.375 29.7451 194.072 30.5107 193.466 31.0713C192.864 31.6318 192.051 31.9121 191.025 31.9121C190.483 31.9121 189.952 31.7982 189.433 31.5703C188.918 31.347 188.526 31.0531 188.257 30.6885L189.043 29.6904C189.553 30.2965 190.182 30.5996 190.93 30.5996C191.481 30.5996 191.916 30.4492 192.235 30.1484C192.554 29.8522 192.714 29.4147 192.714 28.8359V28.3369C192.235 28.8701 191.597 29.1367 190.8 29.1367C189.934 29.1367 189.225 28.7926 188.674 28.1045C188.127 27.4163 187.854 26.4639 187.854 25.2471ZM189.508 25.3906C189.508 26.1335 189.658 26.7191 189.959 27.1475C190.264 27.5713 190.686 27.7832 191.224 27.7832C191.894 27.7832 192.39 27.4961 192.714 26.9219V23.668C192.399 23.1074 191.907 22.8271 191.237 22.8271C190.69 22.8271 190.264 23.0436 189.959 23.4766C189.658 23.9095 189.508 24.5475 189.508 25.3906ZM198.073 29H196.412V18.5H198.073V29ZM203.364 29.1367C202.312 29.1367 201.457 28.8063 200.801 28.1455C200.149 27.4801 199.823 26.596 199.823 25.4932V25.2881C199.823 24.5498 199.965 23.8913 200.247 23.3125C200.534 22.7292 200.935 22.2757 201.45 21.9521C201.965 21.6286 202.539 21.4668 203.173 21.4668C204.18 21.4668 204.957 21.7881 205.504 22.4307C206.055 23.0732 206.331 23.9824 206.331 25.1582V25.8281H201.498C201.548 26.4388 201.751 26.9219 202.106 27.2773C202.466 27.6328 202.918 27.8105 203.46 27.8105C204.221 27.8105 204.841 27.5029 205.319 26.8877L206.215 27.7422C205.919 28.1842 205.522 28.5283 205.025 28.7744C204.533 29.016 203.979 29.1367 203.364 29.1367ZM203.166 22.7998C202.71 22.7998 202.341 22.9593 202.059 23.2783C201.781 23.5973 201.603 24.0417 201.525 24.6113H204.69V24.4883C204.654 23.9323 204.506 23.513 204.246 23.2305C203.986 22.9434 203.626 22.7998 203.166 22.7998Z" fill="white"/>
<path fill-rule="evenodd" clip-rule="evenodd" d="M7 5C6.44772 5 6 5.44772 6 6V42C6 42.5523 6.44772 43 7 43H43C43.5523 43 44 42.5523 44 42V6C44 5.44772 43.5523 5 43 5H7Z" fill="white"/>
<path fill-rule="evenodd" clip-rule="evenodd" d="M33.64 24.2046C33.64 23.5664 33.5827 22.9527 33.4764 22.3636H25V25.845H29.8436C29.635 26.97 29.0009 27.9232 28.0477 28.5614V30.8196H30.9564C32.6582 29.2527 33.64 26.9455 33.64 24.2046V24.2046Z" fill="#4285F4"/>
<path fill-rule="evenodd" clip-rule="evenodd" d="M25 33C27.43 33 29.4673 32.1941 30.9564 30.8196L28.0477 28.5614C27.2418 29.1014 26.2109 29.4205 25 29.4205C22.6559 29.4205 20.6718 27.8373 19.9641 25.71H16.9573V28.0418C18.4382 30.9832 21.4818 33 25 33V33Z" fill="#34A853"/>
<path fill-rule="evenodd" clip-rule="evenodd" d="M19.9641 25.71C19.7841 25.17 19.6818 24.5932 19.6818 24C19.6818 23.4068 19.7841 22.83 19.9641 22.29V19.9582H16.9573C16.3477 21.1732 16 22.5477 16 24C16 25.4523 16.3477 26.8268 16.9573 28.0418L19.9641 25.71V25.71Z" fill="#FBBC05"/>
<path fill-rule="evenodd" clip-rule="evenodd" d="M25 18.5795C26.3214 18.5795 27.5077 19.0336 28.4405 19.9255L31.0218 17.3441C29.4632 15.8918 27.4259 15 25 15C21.4818 15 18.4382 17.0168 16.9573 19.9582L19.9641 22.29C20.6718 20.1627 22.6559 18.5795 25 18.5795V18.5795Z" fill="#EA4335"/>
<defs>
<filter id="filter0_dd" x="4" y="3" width="252" height="43" filterUnits="userSpaceOnUse" color-interpolation-filters="sRGB">
<feFlood flood-opacity="0" result="BackgroundImageFix"/>
<feColorMatrix in="SourceAlpha" type="matrix" values="0 0 0 0 0 0 0 0 0 0 0 0 0 0 0 0 0 0 127 0"/>
<feOffset dy="1"/>
<feGaussianBlur stdDeviation="0.5"/>
<feColorMatrix type="matrix" values="0 0 0 0 0 0 0 0 0 0 0 0 0 0 0 0 0 0 0.24 0"/>
<feBlend mode="normal" in2="BackgroundImageFix" result="effect1_dropShadow"/>
<feColorMatrix in="SourceAlpha" type="matrix" values="0 0 0 0 0 0 0 0 0 0 0 0 0 0 0 0 0 0 127 0"/>
<feOffset/>
<feGaussianBlur stdDeviation="0.5"/>
<feColorMatrix type="matrix" values="0 0 0 0 0 0 0 0 0 0 0 0 0 0 0 0 0 0 0.12 0"/>
<feBlend mode="normal" in2="effect1_dropShadow" result="effect2_dropShadow"/>
<feBlend mode="normal" in="SourceGraphic" in2="effect2_dropShadow" result="shape"/>
</filter>
<clipPath id="clip0">
<rect width="250" height="40" fill="white" transform="translate(5 4)"/>
</clipPath>
</defs>
</svg>
