<svg width="275" height="50" viewBox="0 0 275 50" fill="none" xmlns="http://www.w3.org/2000/svg">
<path d="M25.1936 0.131123C11.2867 0.131123 0 11.2405 0 24.9289C0 38.6173 11.2867 49.7267 25.1936 49.7267C30.1547 49.7267 266.672 51.2146 271.638 47.2471C276.604 43.2795 275.61 6.08272 271.638 2.61103C267.665 -0.86066 39.1004 0.131123 25.1936 0.131123ZM37.7904 27.4087H27.7129V37.3278H22.6742V27.4087H12.5968V22.4491H22.6742V12.53H27.7129V22.4491H37.7904V27.4087Z" fill="white"/>
<path d="M98.5513 16.5635H94.878V27.5408H94.7246L87.1905 16.5635H83.9519V34.0181H87.6422V23.0323H87.77L95.3638 34.0181H98.5513V16.5635ZM101.6 34.0181H113.396V30.9755H105.291V26.8078H112.757V23.7652H105.291V19.6061H113.362V16.5635H101.6V34.0181ZM120.225 34.0181H123.821L127.137 22.6061H127.273L130.597 34.0181H134.193L139.188 16.5635H135.156L132.267 28.7169H132.114L128.935 16.5635H125.483L122.296 28.6914H122.151L119.262 16.5635H115.23L120.225 34.0181ZM161.317 16.5635H157.644V27.5408H157.49L149.956 16.5635H146.717V34.0181H150.408V23.0323H150.536L158.129 34.0181H161.317V16.5635ZM180.406 25.2908C180.406 19.5806 176.86 16.3249 172.232 16.3249C167.579 16.3249 164.059 19.5806 164.059 25.2908C164.059 30.9755 167.579 34.2567 172.232 34.2567C176.86 34.2567 180.406 31.001 180.406 25.2908ZM176.664 25.2908C176.664 28.9897 174.909 30.9925 172.232 30.9925C169.548 30.9925 167.801 28.9897 167.801 25.2908C167.801 21.5919 169.548 19.5891 172.232 19.5891C174.909 19.5891 176.664 21.5919 176.664 25.2908ZM181.701 19.6061H187.045V34.0181H190.693V19.6061H196.036V16.5635H181.701V19.6061ZM198.397 34.0181H210.193V30.9755H202.088V26.8078H209.553V23.7652H202.088V19.6061H210.159V16.5635H198.397V34.0181Z" fill="black"/>
</svg>
