<svg width="755" height="512" viewBox="0 0 755 512" fill="none" xmlns="http://www.w3.org/2000/svg">
<path d="M455.111 0H56.6044C25.3155 0 0 25.6 0 56.8889L0.284444 455.111C0.284444 486.4 25.6 512 56.8889 512H341.333L512 341.333V56.8889C512 25.6 486.4 0 455.111 0ZM113.778 142.222H398.222V199.111H113.778V142.222ZM256 312.889H113.778V256H256V312.889ZM312.889 469.333V312.889H469.333L312.889 469.333Z" fill="#DDBCBC"/>
<path d="M380 301.328L380 380H457.637L687.617 146.953L609.98 68.2813L380 301.328ZM748.907 85.3297C757.031 77.0975 757.031 63.7994 748.907 55.5672L700.164 6.17402C692.04 -2.05817 678.917 -2.05817 670.793 6.17402L633.418 44.5313L711.055 123.203L748.907 85.3297Z" fill="#F90000"/>
<path d="M512 167.5L380 301.328V312.898H469.32L402.214 380H457.637L512 324.94V167.5Z" fill="#5B0B0B"/>
</svg>
